<?xml version="1.0" standalone="no"?><!DOCTYPE svg PUBLIC "-//W3C//DTD SVG 1.1//EN" "http://www.w3.org/Graphics/SVG/1.1/DTD/svg11.dtd"><svg width="100%" height="100%" viewBox="0 0 888 267" version="1.1" xmlns="http://www.w3.org/2000/svg" xmlns:xlink="http://www.w3.org/1999/xlink" xml:space="preserve" style="fill-rule:evenodd;clip-rule:evenodd;stroke-linejoin:round;stroke-miterlimit:1.41421;"><g><path d="M0,41.667c0,-23.012 18.639,-41.667 41.69,-41.667l804.12,0c23.025,0 41.69,18.645 41.69,41.667l0,183.333c0,23.012 -18.639,41.667 -41.69,41.667l-804.12,0c-23.025,0 -41.69,-18.646 -41.69,-41.667l0,-183.333Z" style="fill:#8d5ddd;"/><clipPath id="_clip1"><path d="M0,41.667c0,-23.012 18.639,-41.667 41.69,-41.667l804.12,0c23.025,0 41.69,18.645 41.69,41.667l0,183.333c0,23.012 -18.639,41.667 -41.69,41.667l-804.12,0c-23.025,0 -41.69,-18.646 -41.69,-41.667l0,-183.333Z"/></clipPath><g clip-path="url(#_clip1)"><rect x="-20.833" y="-20.833" width="929.167" height="308.333" style="fill:#8d5ddd;fill-rule:nonzero;"/></g><g transform="matrix(4.16667,0,0,4.16667,0,0)"><text x="68px" y="23px" style="font-family:.SF NS Text;font-size:15px;fill:#fff;">D</text><text x="79.891px" y="23px" style="font-family:.SF NS Text;font-size:15px;fill:#fff;">o</text><text x="88.753px" y="23px" style="font-family:.SF NS Text;font-size:15px;fill:#fff;">w<tspan x="101.37px 111.122px 115.901px 125.764px 135.04px " y="23px 23px 23px 23px 23px ">nload</tspan></text><text x="145.254px" y="23px" style="font-family:.SF NS Text;font-size:15px;fill:#fff;"> </text><text x="150.461px" y="23px" style="font-family:.SF NS Text;font-size:15px;fill:#fff;">o<tspan x="160.323px " y="23px ">n</tspan></text><text x="170.076px" y="23px" style="font-family:.SF NS Text;font-size:15px;fill:#fff;"> </text><text x="175.283px" y="23px" style="font-family:.SF NS Text;font-size:15px;fill:#fff;">t<tspan x="181.732px " y="23px ">h</tspan></text><text x="191.638px" y="23px" style="font-family:.SF NS Text;font-size:15px;fill:#fff;">e </text><text x="67.75px" y="51px" style="font-family:.SF NS Display;font-size:29px;fill:#fff;">A</text><text x="86.445px" y="51px" style="font-family:.SF NS Display;font-size:29px;fill:#fff;">p<tspan x="102.675px " y="51px ">p</tspan></text><text x="118.905px" y="51px" style="font-family:.SF NS Display;font-size:29px;fill:#fff;"> </text><text x="125.209px" y="51px" style="font-family:.SF NS Display;font-size:29px;fill:#fff;">S</text><text x="142.828px" y="51px" style="font-family:.SF NS Display;font-size:29px;fill:#fff;">t</text><text x="151.865px" y="51px" style="font-family:.SF NS Display;font-size:29px;fill:#fff;">o</text><text x="167.657px" y="51px" style="font-family:.SF NS Display;font-size:29px;fill:#fff;">r<tspan x="176.892px " y="51px ">e</tspan></text></g><clipPath id="_clip2"><path d="M200.663,198.769c-7.311,10.645 -14.874,21.224 -26.815,21.446c-11.752,0.222 -15.519,-6.93 -28.929,-6.93c-13.424,0 -17.624,6.708 -28.719,7.152c-11.528,0.429 -20.294,-11.497 -27.666,-22.094c-15.06,-21.666 -26.554,-61.262 -11.095,-87.983c7.655,-13.271 21.372,-21.667 36.237,-21.889c11.321,-0.207 22.015,7.599 28.93,7.599c6.925,0 19.906,-9.372 33.553,-7.998c5.712,0.235 21.744,2.292 32.04,17.291c-0.813,0.532 -19.136,11.145 -18.913,33.255c0.225,26.412 23.247,35.191 23.515,35.31c-0.209,0.621 -3.681,12.533 -12.138,24.841ZM150.527,59.059c6.32,-7.373 16.999,-12.857 25.812,-13.226c1.126,10.242 -3.013,20.498 -9.125,27.888c-6.125,7.377 -16.151,13.124 -25.991,12.356c-1.337,-10.02 3.623,-20.47 9.304,-27.018Z"/></clipPath><g clip-path="url(#_clip2)"><rect x="49.264" y="25" width="184.37" height="216.281" style="fill:#fff;fill-rule:nonzero;"/></g></g></svg>