<?xml version="1.0" encoding="UTF-8"?>
<svg width="65px" height="48px" viewBox="0 0 65 48" version="1.1" xmlns="http://www.w3.org/2000/svg" xmlns:xlink="http://www.w3.org/1999/xlink">
    <!-- Generator: Sketch 48.1 (47250) - http://www.bohemiancoding.com/sketch -->
    <title>customerService</title>
    <desc>Created with Sketch.</desc>
    <defs></defs>
    <g id="Page-1" stroke="none" stroke-width="1" fill="none" fill-rule="evenodd">
        <g id="MoviApp_2" transform="translate(-1052.000000, -1298.000000)">
            <g id="customerService" transform="translate(1051.000000, 1298.000000)">
                <polyline id="Fill-3692" fill="#8D5DDD" points="9.388 26.454 7.388 26.447 7.389 26.286 7.391 26.122 7.393 25.957 7.397 25.793 7.402 25.63 7.407 25.467 7.414 25.303 7.422 25.142 7.431 24.979 7.451 24.654 7.463 24.493 7.476 24.331 7.49 24.17 7.505 24.009 7.521 23.848 7.538 23.688 7.556 23.527 7.575 23.367 7.595 23.208 7.616 23.05 7.638 22.891 7.661 22.731 7.685 22.574 7.71 22.416 7.736 22.258 7.763 22.101 7.79 21.944 7.819 21.788 7.849 21.631 7.88 21.475 7.911 21.319 7.944 21.164 7.978 21.009 8.012 20.854 8.048 20.7 8.084 20.546 8.121 20.393 8.16 20.24 8.199 20.087 8.239 19.935 8.28 19.781 8.322 19.631 8.365 19.479 8.409 19.328 8.454 19.178 8.499 19.027 8.546 18.877 8.593 18.729 8.642 18.578 8.691 18.431 8.741 18.283 8.792 18.135 8.844 17.988 8.897 17.841 8.951 17.695 9.005 17.548 9.061 17.403 9.117 17.257 9.174 17.113 9.232 16.968 9.291 16.824 9.351 16.681 9.412 16.538 9.473 16.395 9.535 16.253 9.599 16.111 9.663 15.97 9.728 15.829 9.793 15.688 9.86 15.549 9.927 15.409 9.995 15.27 10.064 15.132 10.134 14.994 10.205 14.856 10.276 14.719 10.349 14.583 10.422 14.447 10.496 14.311 10.57 14.176 10.646 14.042 10.722 13.908 10.799 13.773 10.877 13.641 10.956 13.508 11.035 13.376 11.115 13.245 11.196 13.114 11.278 12.983 11.361 12.853 11.444 12.724 11.528 12.595 11.698 12.339 11.872 12.085 11.96 11.959 12.048 11.834 12.137 11.709 12.227 11.584 12.318 11.46 12.502 11.214 12.595 11.091 12.689 10.97 12.783 10.849 12.878 10.729 12.974 10.609 13.07 10.489 13.168 10.37 13.266 10.252 13.364 10.135 13.464 10.019 13.564 9.902 13.665 9.786 13.766 9.671 13.868 9.556 13.971 9.442 14.074 9.329 14.178 9.216 14.283 9.104 14.495 8.882 14.601 8.772 14.709 8.662 14.817 8.553 14.926 8.445 15.035 8.337 15.145 8.231 15.256 8.124 15.367 8.019 15.479 7.914 15.592 7.809 15.705 7.706 15.819 7.604 15.933 7.5 16.049 7.398 16.165 7.297 16.281 7.197 16.398 7.099 16.515 7 16.634 6.9 16.752 6.804 16.872 6.707 16.992 6.61 17.112 6.515 17.233 6.419 17.355 6.325 17.601 6.14 17.724 6.049 17.848 5.956 17.972 5.866 18.098 5.776 18.224 5.688 18.35 5.598 18.477 5.511 18.604 5.424 18.732 5.338 18.86 5.253 18.99 5.168 19.12 5.084 19.249 5.001 19.511 4.837 19.643 4.756 19.776 4.676 19.909 4.597 20.042 4.519 20.176 4.44 20.31 4.364 20.445 4.287 20.581 4.212 20.717 4.137 20.853 4.063 20.99 3.99 21.127 3.918 21.265 3.847 21.403 3.776 21.542 3.706 21.822 3.568 21.962 3.501 22.102 3.436 22.244 3.369 22.386 3.304 22.528 3.24 22.671 3.176 22.814 3.114 22.957 3.053 23.101 2.992 23.246 2.932 23.391 2.873 23.536 2.814 23.682 2.757 23.828 2.7 23.975 2.645 24.122 2.59 24.269 2.536 24.417 2.483 24.566 2.431 24.714 2.379 24.863 2.329 25.013 2.279 25.163 2.23 25.465 2.136 25.616 2.09 25.767 2.045 25.919 2 26.072 1.957 26.224 1.915 26.377 1.873 26.531 1.833 26.685 1.793 26.839 1.754 26.994 1.716 27.149 1.679 27.304 1.643 27.46 1.608 27.616 1.574 27.773 1.541 27.929 1.509 28.087 1.477 28.244 1.447 28.402 1.418 28.559 1.389 28.718 1.362 28.877 1.335 29.036 1.31 29.196 1.285 29.355 1.261 29.515 1.239 29.676 1.217 29.836 1.196 29.997 1.177 30.159 1.158 30.32 1.14 30.482 1.123 30.645 1.106 30.807 1.093 30.97 1.079 31.133 1.065 31.296 1.054 31.46 1.043 31.624 1.034 31.788 1.025 31.952 1.017 32.117 1.011 32.282 1.005 32.447 1 32.612 0.997 32.778 0.994 32.944 0.992 33.276 0.992 33.442 0.994 33.608 0.997 33.773 1 33.938 1.005 34.268 1.017 34.432 1.025 34.596 1.034 34.76 1.043 34.924 1.054 35.087 1.065 35.25 1.079 35.413 1.093 35.575 1.106 35.738 1.123 35.899 1.14 36.061 1.158 36.223 1.177 36.383 1.196 36.544 1.217 36.864 1.261 37.024 1.285 37.184 1.31 37.343 1.335 37.502 1.362 37.661 1.389 37.818 1.418 37.976 1.447 38.133 1.477 38.291 1.509 38.447 1.541 38.604 1.574 38.76 1.608 38.916 1.643 39.071 1.679 39.226 1.716 39.381 1.754 39.535 1.793 39.689 1.833 39.842 1.873 39.995 1.915 40.148 1.957 40.301 2.001 40.453 2.045 40.604 2.09 40.755 2.136 40.906 2.184 41.057 2.23 41.207 2.279 41.357 2.329 41.505 2.379 41.654 2.432 41.803 2.483 41.951 2.536 42.098 2.59 42.245 2.646 42.392 2.7 42.684 2.814 42.829 2.873 43.119 2.992 43.263 3.054 43.406 3.114 43.549 3.177 43.692 3.24 43.976 3.369 44.117 3.436 44.258 3.501 44.398 3.568 44.538 3.638 44.678 3.706 44.816 3.776 44.955 3.848 45.093 3.918 45.23 3.99 45.367 4.063 45.503 4.138 45.775 4.287 45.91 4.364 46.044 4.44 46.178 4.519 46.311 4.598 46.444 4.677 46.576 4.756 46.708 4.837 46.84 4.919 46.97 5.001 47.1 5.084 47.23 5.168 47.359 5.253 47.488 5.339 47.616 5.425 47.743 5.512 47.87 5.599 48.122 5.776 48.248 5.867 48.372 5.957 48.496 6.049 48.619 6.14 48.742 6.232 48.865 6.326 48.987 6.42 49.108 6.515 49.348 6.707 49.468 6.804 49.586 6.901 49.704 6.999 49.822 7.099 49.939 7.198 50.055 7.298 50.171 7.399 50.287 7.501 50.401 7.604 50.515 7.707 50.628 7.81 50.74 7.914 50.852 8.019 50.964 8.125 51.075 8.231 51.294 8.445 51.403 8.554 51.511 8.663 51.618 8.772 51.725 8.883 51.831 8.994 51.937 9.104 52.042 9.217 52.146 9.33 52.249 9.442 52.352 9.557 52.454 9.672 52.555 9.787 52.656 9.903 52.756 10.019 52.954 10.253 53.052 10.371 53.15 10.49 53.246 10.609 53.342 10.729 53.437 10.85 53.625 11.092 53.718 11.215 53.81 11.338 53.902 11.461 53.992 11.585 54.082 11.709 54.172 11.834 54.26 11.959 54.348 12.085 54.435 12.213 54.522 12.34 54.607 12.468 54.692 12.596 54.776 12.725 54.859 12.854 54.942 12.983 55.024 13.114 55.105 13.245 55.185 13.376 55.264 13.508 55.343 13.642 55.421 13.774 55.498 13.908 55.574 14.042 55.65 14.176 55.724 14.313 55.798 14.447 55.871 14.583 55.943 14.719 56.015 14.857 56.086 14.994 56.155 15.132 56.224 15.271 56.293 15.409 56.427 15.689 56.492 15.829 56.557 15.97 56.621 16.111 56.747 16.396 56.808 16.538 56.869 16.682 56.929 16.824 56.988 16.968 57.046 17.113 57.103 17.257 57.159 17.403 57.215 17.548 57.269 17.695 57.323 17.841 57.376 17.988 57.428 18.135 57.479 18.283 57.529 18.431 57.578 18.579 57.627 18.729 57.674 18.878 57.721 19.028 57.766 19.178 57.811 19.329 57.855 19.479 57.898 19.631 57.94 19.782 57.981 19.934 58.021 20.087 58.06 20.24 58.098 20.393 58.136 20.546 58.172 20.7 58.208 20.855 58.242 21.009 58.276 21.164 58.308 21.32 58.34 21.475 58.371 21.631 58.401 21.788 58.429 21.944 58.457 22.102 58.484 22.258 58.51 22.416 58.535 22.574 58.559 22.732 58.582 22.891 58.604 23.05 58.625 23.209 58.645 23.368 58.664 23.528 58.682 23.688 58.699 23.848 58.715 24.009 58.73 24.17 58.756 24.493 58.768 24.655 58.779 24.817 58.789 24.979 58.798 25.142 58.806 25.304 58.813 25.468 58.818 25.631 58.823 25.794 58.827 25.958 58.829 26.123 58.831 26.287 58.831 26.448 56.831 26.454 56.831 26.3 56.829 26.147 56.827 25.997 56.824 25.846 56.814 25.544 56.808 25.394 56.801 25.244 56.783 24.944 56.773 24.795 56.762 24.646 56.75 24.497 56.738 24.349 56.724 24.201 56.709 24.053 56.693 23.905 56.677 23.757 56.659 23.611 56.641 23.464 56.622 23.317 56.58 23.025 56.558 22.879 56.535 22.734 56.512 22.589 56.487 22.444 56.461 22.299 56.435 22.155 56.407 22.011 56.379 21.868 56.35 21.725 56.32 21.582 56.289 21.439 56.225 21.155 56.157 20.872 56.121 20.731 56.085 20.59 56.048 20.45 56.011 20.311 55.972 20.17 55.932 20.031 55.892 19.893 55.851 19.754 55.809 19.616 55.766 19.479 55.722 19.34 55.678 19.203 55.632 19.067 55.586 18.93 55.539 18.794 55.492 18.659 55.443 18.523 55.393 18.388 55.343 18.254 55.292 18.12 55.24 17.986 55.188 17.853 55.134 17.72 55.08 17.588 55.025 17.455 54.969 17.324 54.913 17.192 54.855 17.062 54.797 16.931 54.738 16.801 54.678 16.672 54.618 16.542 54.557 16.413 54.495 16.285 54.432 16.157 54.368 16.03 54.304 15.902 54.239 15.776 54.173 15.65 54.107 15.524 54.039 15.399 53.971 15.274 53.902 15.149 53.833 15.026 53.763 14.902 53.692 14.779 53.62 14.656 53.547 14.534 53.474 14.413 53.4 14.292 53.326 14.171 53.25 14.051 53.174 13.931 53.098 13.813 53.02 13.693 52.942 13.575 52.863 13.457 52.784 13.34 52.703 13.224 52.623 13.107 52.541 12.991 52.458 12.876 52.375 12.761 52.292 12.647 52.207 12.533 52.037 12.308 51.95 12.195 51.863 12.083 51.776 11.973 51.687 11.862 51.509 11.643 51.418 11.534 51.328 11.426 51.236 11.317 51.143 11.21 51.051 11.104 50.957 10.997 50.863 10.892 50.673 10.683 50.577 10.578 50.48 10.476 50.383 10.373 50.285 10.271 50.186 10.168 50.087 10.067 49.988 9.968 49.887 9.867 49.787 9.769 49.583 9.571 49.48 9.475 49.377 9.377 49.273 9.28 49.063 9.091 48.958 8.996 48.852 8.902 48.745 8.809 48.638 8.717 48.53 8.625 48.421 8.533 48.312 8.442 48.203 8.353 48.093 8.263 47.982 8.175 47.87 8.087 47.759 7.999 47.647 7.913 47.534 7.826 47.42 7.741 47.306 7.656 47.192 7.572 47.077 7.488 46.961 7.405 46.846 7.324 46.729 7.242 46.612 7.161 46.494 7.081 46.376 7.002 46.258 6.923 46.139 6.845 45.899 6.69 45.657 6.539 45.536 6.465 45.414 6.391 45.291 6.318 45.168 6.246 45.045 6.174 44.92 6.103 44.796 6.032 44.672 5.963 44.546 5.894 44.42 5.826 44.294 5.759 44.167 5.692 44.04 5.626 43.912 5.561 43.784 5.496 43.656 5.433 43.527 5.37 43.397 5.308 43.137 5.185 43.007 5.126 42.875 5.065 42.744 5.008 42.612 4.951 42.479 4.894 42.347 4.838 42.214 4.782 41.946 4.674 41.811 4.621 41.676 4.569 41.541 4.518 41.405 4.467 41.269 4.417 41.133 4.368 40.996 4.32 40.859 4.273 40.721 4.226 40.583 4.18 40.445 4.136 40.167 4.048 40.028 4.006 39.888 3.964 39.748 3.923 39.325 3.806 39.184 3.769 39.042 3.732 38.899 3.696 38.757 3.661 38.614 3.627 38.47 3.594 38.326 3.562 38.183 3.529 38.038 3.5 37.893 3.47 37.749 3.44 37.604 3.413 37.458 3.386 37.312 3.359 37.165 3.334 37.019 3.31 36.873 3.286 36.725 3.264 36.578 3.242 36.43 3.221 36.282 3.201 36.134 3.182 35.985 3.163 35.836 3.146 35.687 3.13 35.537 3.114 35.388 3.1 35.238 3.086 35.088 3.073 34.937 3.061 34.786 3.05 34.635 3.041 34.484 3.032 34.332 3.024 34.18 3.016 34.028 3.01 33.876 3.005 33.723 3.001 33.57 2.997 33.417 2.995 33.264 2.993 32.956 2.993 32.803 2.995 32.65 2.997 32.497 3.001 32.344 3.005 32.192 3.01 32.04 3.016 31.888 3.024 31.736 3.032 31.434 3.05 31.283 3.061 31.132 3.073 30.982 3.086 30.832 3.1 30.682 3.114 30.533 3.13 30.383 3.146 30.235 3.163 30.086 3.182 29.79 3.221 29.642 3.242 29.494 3.264 29.347 3.286 29.2 3.31 29.054 3.334 28.908 3.359 28.762 3.386 28.616 3.413 28.471 3.44 28.326 3.47 28.181 3.5 28.037 3.529 27.893 3.562 27.75 3.594 27.606 3.627 27.463 3.661 27.321 3.696 27.178 3.732 27.036 3.769 26.895 3.806 26.753 3.845 26.612 3.884 26.472 3.923 26.332 3.964 26.192 4.006 26.053 4.048 25.913 4.092 25.775 4.136 25.637 4.181 25.499 4.226 25.361 4.273 25.224 4.32 25.087 4.368 24.951 4.417 24.815 4.467 24.543 4.569 24.409 4.621 24.274 4.674 24.14 4.728 24.006 4.782 23.873 4.838 23.741 4.894 23.608 4.951 23.476 5.008 23.345 5.065 23.213 5.126 23.083 5.186 22.953 5.246 22.823 5.308 22.693 5.37 22.435 5.496 22.307 5.561 22.18 5.626 22.053 5.692 21.926 5.759 21.8 5.826 21.674 5.894 21.548 5.963 21.424 6.032 21.3 6.103 21.175 6.174 21.052 6.246 20.929 6.318 20.806 6.391 20.684 6.465 20.563 6.539 20.442 6.615 20.321 6.69 20.2 6.768 20.081 6.845 19.962 6.923 19.844 7.002 19.725 7.081 19.608 7.161 19.491 7.242 19.374 7.324 19.259 7.405 19.143 7.488 19.028 7.572 18.914 7.656 18.799 7.741 18.686 7.826 18.573 7.913 18.461 7.999 18.349 8.087 18.238 8.175 18.127 8.263 18.017 8.353 17.908 8.442 17.799 8.533 17.69 8.625 17.582 8.717 17.475 8.809 17.368 8.902 17.262 8.996 17.156 9.091 17.051 9.186 16.947 9.281 16.843 9.378 16.74 9.474 16.637 9.572 16.535 9.67 16.433 9.769 16.232 9.968 16.133 10.068 16.034 10.169 15.935 10.271 15.837 10.373 15.643 10.578 15.547 10.683 15.452 10.788 15.357 10.892 15.169 11.104 15.076 11.211 14.984 11.317 14.892 11.426 14.802 11.534 14.711 11.643 14.622 11.753 14.533 11.862 14.444 11.973 14.357 12.084 14.269 12.195 14.183 12.308 14.097 12.421 14.013 12.534 13.928 12.647 13.844 12.762 13.761 12.876 13.679 12.992 13.598 13.107 13.517 13.224 13.436 13.341 13.357 13.458 13.278 13.575 13.2 13.693 13.122 13.813 13.045 13.932 12.97 14.052 12.894 14.171 12.82 14.292 12.746 14.413 12.672 14.534 12.6 14.656 12.528 14.779 12.457 14.902 12.387 15.026 12.318 15.149 12.249 15.274 12.113 15.524 11.981 15.776 11.916 15.902 11.852 16.03 11.788 16.157 11.725 16.285 11.663 16.414 11.602 16.542 11.541 16.672 11.482 16.801 11.423 16.932 11.365 17.062 11.307 17.192 11.251 17.324 11.195 17.456 11.14 17.588 11.086 17.721 11.032 17.854 10.98 17.986 10.928 18.12 10.877 18.254 10.826 18.389 10.777 18.523 10.728 18.659 10.68 18.794 10.634 18.93 10.587 19.067 10.542 19.203 10.497 19.34 10.454 19.479 10.411 19.616 10.369 19.754 10.328 19.893 10.287 20.031 10.248 20.171 10.209 20.311 10.172 20.45 10.134 20.59 10.098 20.731 10.063 20.873 9.995 21.155 9.963 21.298 9.931 21.439 9.9 21.583 9.87 21.725 9.841 21.869 9.812 22.012 9.785 22.155 9.759 22.299 9.733 22.444 9.708 22.59 9.684 22.734 9.662 22.88 9.639 23.025 9.618 23.172 9.598 23.317 9.579 23.465 9.56 23.61 9.543 23.758 9.526 23.905 9.511 24.054 9.496 24.201 9.482 24.349 9.469 24.497 9.447 24.795 9.427 25.094 9.419 25.244 9.412 25.395 9.406 25.544 9.396 25.846 9.393 25.997 9.39 26.148 9.389 26.3 9.389 26.455"></polyline>
                <polyline id="Fill-3693" fill="#8D5DDD" points="14.172 26.455 12.172 26.449 12.172 26.313 12.173 26.174 12.176 26.036 12.179 25.897 12.187 25.621 12.199 25.346 12.207 25.209 12.215 25.072 12.224 24.935 12.234 24.798 12.256 24.525 12.268 24.39 12.282 24.254 12.296 24.119 12.311 23.984 12.326 23.849 12.36 23.58 12.378 23.445 12.397 23.312 12.417 23.178 12.438 23.045 12.459 22.911 12.505 22.646 12.528 22.514 12.553 22.382 12.579 22.25 12.605 22.119 12.632 21.988 12.688 21.726 12.718 21.596 12.748 21.466 12.779 21.336 12.81 21.207 12.843 21.078 12.876 20.949 12.91 20.821 12.945 20.693 13.017 20.437 13.054 20.31 13.092 20.183 13.13 20.057 13.17 19.931 13.21 19.805 13.251 19.679 13.292 19.554 13.334 19.43 13.377 19.305 13.421 19.181 13.466 19.057 13.511 18.934 13.603 18.688 13.699 18.443 13.748 18.321 13.797 18.2 13.848 18.079 13.898 17.959 13.95 17.839 14.002 17.72 14.056 17.6 14.109 17.48 14.164 17.362 14.219 17.245 14.275 17.127 14.331 17.01 14.388 16.893 14.446 16.776 14.505 16.659 14.624 16.429 14.746 16.199 14.87 15.972 14.997 15.745 15.127 15.521 15.259 15.298 15.394 15.077 15.531 14.858 15.671 14.641 15.814 14.426 15.959 14.212 16.106 14 16.256 13.79 16.408 13.582 16.563 13.376 16.72 13.172 16.879 12.97 17.041 12.769 17.206 12.571 17.372 12.375 17.541 12.181 17.711 11.989 17.885 11.799 18.06 11.611 18.238 11.425 18.418 11.242 18.599 11.06 18.784 10.881 18.97 10.704 19.158 10.528 19.349 10.356 19.541 10.187 19.735 10.019 19.932 9.853 20.13 9.689 20.331 9.529 20.534 9.37 20.738 9.214 20.944 9.061 21.152 8.908 21.362 8.761 21.574 8.614 21.788 8.471 22.003 8.329 22.221 8.19 22.44 8.055 22.661 7.921 22.883 7.79 23.108 7.662 23.332 7.537 23.447 7.475 23.561 7.413 23.676 7.353 23.79 7.292 23.906 7.233 24.137 7.118 24.254 7.061 24.371 7.004 24.488 6.949 24.605 6.894 24.723 6.84 24.842 6.786 24.96 6.733 25.08 6.681 25.2 6.629 25.319 6.579 25.439 6.529 25.681 6.431 25.803 6.383 25.924 6.336 26.046 6.29 26.169 6.244 26.291 6.199 26.415 6.155 26.538 6.111 26.662 6.069 26.786 6.027 26.911 5.985 27.035 5.945 27.16 5.905 27.286 5.866 27.412 5.828 27.538 5.791 27.665 5.754 27.791 5.718 27.919 5.683 28.046 5.649 28.174 5.615 28.302 5.582 28.43 5.55 28.559 5.519 28.688 5.489 28.817 5.459 28.947 5.43 29.077 5.402 29.207 5.375 29.337 5.348 29.599 5.297 29.73 5.273 29.862 5.25 29.993 5.228 30.125 5.206 30.258 5.185 30.39 5.165 30.524 5.146 30.657 5.128 30.79 5.11 30.924 5.093 31.057 5.077 31.192 5.062 31.326 5.048 31.461 5.035 31.596 5.022 31.73 5.011 31.866 5 32.002 4.99 32.138 4.981 32.273 4.973 32.409 4.965 32.546 4.958 32.683 4.953 32.819 4.948 32.957 4.944 33.094 4.941 33.232 4.939 33.369 4.938 33.507 4.937 33.783 4.937 33.92 4.939 34.058 4.942 34.195 4.946 34.331 4.951 34.468 4.956 34.605 4.963 34.741 4.971 34.877 4.979 35.013 4.988 35.148 4.998 35.284 5.009 35.419 5.02 35.554 5.033 35.688 5.046 35.822 5.06 35.957 5.075 36.091 5.091 36.224 5.108 36.358 5.126 36.49 5.144 36.624 5.163 36.756 5.183 36.889 5.204 37.021 5.226 37.152 5.248 37.284 5.271 37.415 5.295 37.546 5.32 37.678 5.346 37.808 5.373 37.938 5.4 38.068 5.428 38.197 5.457 38.326 5.487 38.455 5.517 38.584 5.548 38.712 5.58 38.841 5.613 38.968 5.647 39.095 5.681 39.223 5.716 39.35 5.752 39.602 5.826 39.728 5.864 39.854 5.903 39.979 5.943 40.104 5.983 40.228 6.025 40.352 6.066 40.476 6.109 40.6 6.153 40.723 6.197 40.846 6.242 40.968 6.288 41.09 6.334 41.211 6.381 41.333 6.429 41.455 6.478 41.575 6.527 41.815 6.627 41.934 6.679 42.054 6.731 42.173 6.784 42.291 6.838 42.409 6.892 42.526 6.947 42.643 7.002 42.761 7.059 42.877 7.116 42.993 7.174 43.109 7.231 43.224 7.291 43.338 7.351 43.453 7.411 43.567 7.472 43.682 7.535 43.907 7.66 44.131 7.788 44.354 7.918 44.574 8.053 44.793 8.188 45.011 8.327 45.226 8.469 45.44 8.611 45.652 8.759 45.862 8.906 46.07 9.059 46.276 9.212 46.481 9.368 46.683 9.526 46.884 9.688 47.082 9.851 47.279 10.017 47.473 10.185 47.666 10.354 47.856 10.526 48.044 10.701 48.231 10.878 48.415 11.059 48.597 11.239 48.776 11.422 48.954 11.608 49.129 11.797 49.303 11.986 49.474 12.179 49.642 12.373 49.809 12.568 49.973 12.767 50.135 12.968 50.294 13.17 50.451 13.374 50.606 13.58 50.758 13.788 50.908 13.998 51.055 14.21 51.2 14.423 51.343 14.639 51.483 14.855 51.62 15.076 51.755 15.296 51.887 15.519 52.017 15.743 52.144 15.97 52.269 16.197 52.391 16.427 52.509 16.656 52.568 16.774 52.626 16.891 52.74 17.125 52.795 17.243 52.851 17.36 52.905 17.479 52.959 17.598 53.012 17.718 53.064 17.838 53.116 17.957 53.167 18.078 53.217 18.198 53.267 18.32 53.315 18.441 53.363 18.563 53.411 18.686 53.458 18.809 53.503 18.932 53.549 19.055 53.593 19.179 53.637 19.303 53.68 19.428 53.722 19.552 53.764 19.678 53.804 19.803 53.845 19.928 53.884 20.055 53.923 20.181 53.997 20.435 54.034 20.563 54.069 20.69 54.104 20.817 54.138 20.946 54.171 21.075 54.204 21.204 54.236 21.333 54.267 21.463 54.297 21.594 54.326 21.724 54.355 21.854 54.382 21.984 54.41 22.116 54.436 22.249 54.461 22.379 54.486 22.512 54.51 22.644 54.533 22.776 54.555 22.908 54.597 23.175 54.617 23.31 54.636 23.442 54.654 23.577 54.671 23.711 54.688 23.846 54.704 23.981 54.719 24.116 54.733 24.251 54.746 24.387 54.758 24.523 54.77 24.659 54.78 24.795 54.79 24.932 54.799 25.069 54.808 25.206 54.815 25.344 54.821 25.48 54.827 25.619 54.832 25.757 54.836 25.895 54.839 26.034 54.841 26.172 54.843 26.446 52.843 26.453 52.843 26.324 52.842 26.197 52.84 26.07 52.837 25.946 52.834 25.819 52.829 25.695 52.824 25.568 52.812 25.32 52.796 25.071 52.787 24.947 52.767 24.699 52.756 24.576 52.744 24.453 52.731 24.329 52.703 24.084 52.688 23.961 52.672 23.839 52.656 23.719 52.638 23.597 52.621 23.475 52.602 23.354 52.562 23.112 52.52 22.872 52.474 22.632 52.45 22.515 52.426 22.396 52.401 22.276 52.375 22.157 52.348 22.039 52.321 21.922 52.293 21.805 52.264 21.687 52.234 21.57 52.204 21.454 52.142 21.22 52.11 21.104 52.077 20.99 52.043 20.874 52.009 20.759 51.974 20.644 51.938 20.529 51.902 20.416 51.865 20.301 51.827 20.188 51.789 20.075 51.75 19.962 51.71 19.85 51.67 19.737 51.629 19.625 51.587 19.514 51.545 19.402 51.502 19.291 51.458 19.18 51.414 19.07 51.369 18.96 51.324 18.852 51.277 18.741 51.183 18.524 51.135 18.416 51.086 18.308 51.037 18.2 50.986 18.093 50.936 17.986 50.885 17.879 50.781 17.668 50.728 17.564 50.619 17.353 50.509 17.146 50.396 16.938 50.281 16.733 50.163 16.529 50.043 16.327 49.921 16.127 49.796 15.928 49.669 15.731 49.54 15.535 49.408 15.342 49.274 15.149 49.139 14.959 49 14.771 48.86 14.583 48.717 14.398 48.573 14.215 48.426 14.034 48.277 13.854 48.126 13.676 47.973 13.5 47.818 13.326 47.661 13.153 47.502 12.983 47.34 12.814 47.177 12.648 47.012 12.483 46.845 12.321 46.676 12.16 46.505 12.002 46.333 11.845 46.158 11.691 45.982 11.538 45.803 11.388 45.623 11.24 45.442 11.094 45.258 10.95 45.073 10.809 44.886 10.67 44.697 10.533 44.507 10.398 44.315 10.265 44.121 10.135 43.925 10.007 43.729 9.881 43.53 9.758 43.33 9.637 43.128 9.518 42.925 9.402 42.72 9.287 42.618 9.231 42.514 9.177 42.411 9.122 42.307 9.067 42.202 9.014 42.097 8.961 41.992 8.909 41.887 8.856 41.782 8.807 41.675 8.756 41.569 8.706 41.461 8.657 41.355 8.609 41.247 8.561 41.031 8.467 40.923 8.421 40.813 8.375 40.704 8.331 40.595 8.287 40.375 8.201 40.264 8.159 40.154 8.118 40.042 8.077 39.931 8.037 39.819 7.998 39.708 7.959 39.595 7.921 39.482 7.884 39.369 7.848 39.256 7.811 39.142 7.776 39.028 7.742 38.914 7.708 38.8 7.675 38.685 7.642 38.57 7.609 38.455 7.579 38.339 7.549 38.223 7.519 38.107 7.49 37.991 7.462 37.874 7.434 37.757 7.407 37.64 7.381 37.522 7.355 37.286 7.307 37.168 7.284 37.049 7.261 36.931 7.24 36.812 7.219 36.692 7.197 36.572 7.179 36.453 7.16 36.213 7.124 36.092 7.107 35.971 7.092 35.729 7.062 35.607 7.049 35.485 7.036 35.363 7.024 35.241 7.012 35.119 7.002 34.996 6.992 34.873 6.983 34.75 6.975 34.627 6.967 34.503 6.96 34.38 6.955 34.256 6.949 34.132 6.945 34.007 6.941 33.883 6.939 33.758 6.937 33.508 6.935 33.258 6.935 33.134 6.937 33.009 6.939 32.885 6.943 32.76 6.947 32.636 6.953 32.513 6.958 32.39 6.965 32.266 6.973 32.143 6.981 32.02 6.99 31.898 7 31.775 7.01 31.653 7.022 31.531 7.034 31.409 7.047 31.288 7.06 31.166 7.075 31.045 7.09 30.924 7.105 30.804 7.122 30.564 7.158 30.324 7.196 30.204 7.217 30.086 7.238 29.967 7.259 29.848 7.282 29.73 7.305 29.612 7.329 29.494 7.354 29.377 7.379 29.259 7.405 29.143 7.432 29.025 7.46 28.909 7.488 28.793 7.517 28.677 7.547 28.561 7.577 28.446 7.607 28.332 7.64 28.216 7.673 28.102 7.706 27.988 7.74 27.874 7.774 27.761 7.809 27.647 7.846 27.534 7.882 27.421 7.919 27.309 7.957 27.197 7.996 27.085 8.035 26.974 8.075 26.752 8.157 26.641 8.199 26.531 8.242 26.421 8.285 26.312 8.329 26.203 8.374 26.094 8.419 25.985 8.465 25.769 8.559 25.662 8.607 25.555 8.655 25.448 8.704 25.341 8.754 25.235 8.805 25.129 8.855 25.024 8.907 24.919 8.959 24.814 9.012 24.709 9.066 24.605 9.12 24.502 9.175 24.399 9.23 24.297 9.285 24.091 9.4 23.888 9.516 23.686 9.635 23.486 9.756 23.287 9.879 23.091 10.005 22.895 10.133 22.702 10.263 22.509 10.396 22.319 10.531 22.13 10.668 21.943 10.807 21.758 10.949 21.574 11.092 21.393 11.238 21.213 11.386 21.035 11.536 20.858 11.689 20.684 11.843 20.511 12 20.34 12.158 20.171 12.319 20.004 12.481 19.839 12.646 19.676 12.812 19.515 12.981 19.356 13.151 19.198 13.324 19.043 13.498 18.89 13.674 18.739 13.852 18.59 14.032 18.444 14.213 18.299 14.396 18.156 14.582 18.016 14.769 17.878 14.958 17.742 15.147 17.608 15.34 17.477 15.534 17.347 15.729 17.22 15.927 17.096 16.126 16.973 16.326 16.853 16.527 16.736 16.731 16.62 16.937 16.507 17.144 16.397 17.352 16.288 17.563 16.236 17.667 16.183 17.771 16.132 17.877 16.08 17.984 16.03 18.092 15.98 18.199 15.93 18.307 15.882 18.414 15.834 18.522 15.786 18.631 15.739 18.74 15.693 18.849 15.647 18.959 15.603 19.068 15.558 19.179 15.515 19.29 15.472 19.401 15.429 19.512 15.388 19.624 15.347 19.736 15.306 19.848 15.267 19.96 15.228 20.073 15.189 20.186 15.152 20.3 15.114 20.414 15.078 20.527 15.042 20.642 15.008 20.757 14.973 20.872 14.94 20.987 14.907 21.103 14.843 21.335 14.812 21.452 14.782 21.568 14.752 21.685 14.724 21.803 14.668 22.038 14.642 22.155 14.616 22.274 14.59 22.393 14.566 22.512 14.542 22.631 14.519 22.75 14.475 22.99 14.454 23.11 14.434 23.231 14.414 23.352 14.396 23.474 14.36 23.715 14.344 23.838 14.328 23.96 14.313 24.083 14.285 24.327 14.273 24.451 14.249 24.697 14.229 24.945 14.22 25.069 14.212 25.193 14.198 25.442 14.192 25.566 14.187 25.693 14.179 25.944 14.176 26.069 14.174 26.196 14.174 26.451"></polyline>
                <polyline id="Fill-3694" fill="#8D5DDD" points="56.237 44.82 56.225 42.82 56.332 42.82 56.432 42.818 56.532 42.815 56.632 42.81 56.732 42.805 56.83 42.798 56.929 42.79 57.028 42.78 57.126 42.77 57.223 42.758 57.321 42.745 57.418 42.731 57.514 42.716 57.61 42.7 57.705 42.682 57.8 42.664 57.895 42.644 57.99 42.623 58.176 42.578 58.269 42.554 58.362 42.528 58.454 42.502 58.546 42.474 58.636 42.446 58.727 42.416 58.817 42.385 58.906 42.354 58.995 42.321 59.084 42.287 59.172 42.252 59.259 42.216 59.346 42.179 59.433 42.141 59.519 42.102 59.603 42.062 59.688 42.021 59.773 41.979 59.856 41.937 59.939 41.892 60.021 41.847 60.103 41.801 60.184 41.754 60.264 41.707 60.344 41.658 60.423 41.609 60.502 41.558 60.58 41.507 60.657 41.454 60.734 41.401 60.809 41.347 60.884 41.292 60.96 41.236 61.033 41.18 61.106 41.122 61.179 41.063 61.25 41.005 61.321 40.945 61.391 40.883 61.461 40.822 61.529 40.76 61.597 40.696 61.664 40.632 61.73 40.568 61.796 40.502 61.861 40.435 61.925 40.368 61.988 40.3 62.05 40.232 62.111 40.162 62.172 40.092 62.232 40.021 62.291 39.95 62.349 39.878 62.406 39.805 62.463 39.73 62.518 39.657 62.573 39.582 62.626 39.507 62.679 39.43 62.731 39.353 62.782 39.275 62.832 39.196 62.881 39.117 62.929 39.038 62.976 38.958 63.022 38.877 63.068 38.796 63.112 38.714 63.155 38.632 63.197 38.549 63.239 38.465 63.279 38.381 63.318 38.298 63.357 38.211 63.431 38.04 63.466 37.953 63.5 37.865 63.533 37.777 63.565 37.689 63.596 37.602 63.626 37.512 63.655 37.422 63.682 37.332 63.709 37.241 63.735 37.15 63.759 37.059 63.805 36.874 63.826 36.781 63.846 36.688 63.864 36.594 63.882 36.5 63.898 36.405 63.914 36.31 63.928 36.215 63.941 36.119 63.952 36.023 63.963 35.926 63.972 35.829 63.98 35.732 63.987 35.635 63.993 35.537 63.997 35.438 64 35.339 64.002 35.241 64.003 35.141 64.003 35.042 64.001 34.943 63.998 34.844 63.994 34.746 63.988 34.647 63.981 34.55 63.973 34.453 63.964 34.356 63.953 34.259 63.942 34.163 63.929 34.067 63.915 33.972 63.899 33.877 63.883 33.782 63.847 33.595 63.827 33.501 63.806 33.409 63.783 33.316 63.76 33.224 63.736 33.132 63.71 33.041 63.683 32.95 63.656 32.86 63.627 32.77 63.597 32.681 63.566 32.592 63.534 32.504 63.501 32.416 63.467 32.329 63.432 32.243 63.395 32.156 63.358 32.07 63.319 31.985 63.28 31.901 63.24 31.816 63.198 31.732 63.156 31.65 63.113 31.568 63.068 31.485 63.023 31.404 62.977 31.324 62.93 31.243 62.882 31.164 62.833 31.086 62.783 31.007 62.732 30.929 62.627 30.776 62.573 30.7 62.519 30.626 62.464 30.552 62.407 30.477 62.35 30.405 62.292 30.333 62.233 30.261 62.173 30.19 62.112 30.12 62.051 30.051 61.989 29.982 61.926 29.914 61.862 29.847 61.797 29.781 61.731 29.715 61.665 29.65 61.598 29.586 61.53 29.523 61.461 29.46 61.392 29.399 61.322 29.338 61.251 29.278 61.179 29.219 61.107 29.16 61.034 29.103 60.96 29.046 60.885 28.99 60.81 28.935 60.735 28.881 60.658 28.828 60.581 28.776 60.503 28.724 60.424 28.674 60.345 28.624 60.265 28.576 60.185 28.528 60.104 28.481 60.022 28.435 59.94 28.39 59.857 28.346 59.774 28.304 59.689 28.262 59.604 28.22 59.519 28.181 59.434 28.143 59.347 28.104 59.26 28.067 59.173 28.031 59.085 27.996 58.997 27.962 58.907 27.929 58.818 27.897 58.728 27.866 58.637 27.837 58.546 27.808 58.455 27.78 58.363 27.754 58.27 27.729 58.178 27.704 58.084 27.681 57.99 27.659 57.896 27.638 57.802 27.619 57.706 27.6 57.611 27.582 57.515 27.566 57.418 27.551 57.322 27.537 57.225 27.524 57.127 27.512 57.029 27.502 56.931 27.493 56.832 27.485 56.732 27.478 56.633 27.472 56.533 27.468 56.433 27.465 56.333 27.463 56.225 27.462 56.239 25.462 56.358 25.462 56.483 25.464 56.609 25.468 56.734 25.474 56.858 25.481 56.982 25.489 57.105 25.499 57.229 25.511 57.352 25.524 57.474 25.539 57.596 25.555 57.717 25.572 57.838 25.591 57.959 25.612 58.079 25.634 58.198 25.657 58.436 25.708 58.554 25.736 58.671 25.766 58.788 25.796 58.904 25.828 59.02 25.861 59.135 25.896 59.249 25.933 59.363 25.97 59.476 26.007 59.589 26.048 59.7 26.089 59.812 26.131 59.923 26.176 60.032 26.222 60.142 26.268 60.25 26.315 60.358 26.364 60.466 26.414 60.572 26.466 60.677 26.519 60.783 26.573 60.887 26.628 60.99 26.685 61.093 26.742 61.195 26.802 61.296 26.86 61.396 26.923 61.496 26.984 61.594 27.048 61.692 27.113 61.789 27.179 61.885 27.245 61.981 27.313 62.075 27.383 62.169 27.452 62.261 27.523 62.353 27.596 62.444 27.669 62.534 27.744 62.623 27.818 62.712 27.896 62.799 27.973 62.885 28.052 62.97 28.131 63.055 28.212 63.138 28.293 63.302 28.459 63.382 28.544 63.461 28.629 63.54 28.715 63.618 28.803 63.693 28.891 63.769 28.98 63.843 29.07 63.916 29.161 63.988 29.253 64.059 29.345 64.129 29.439 64.198 29.534 64.265 29.629 64.332 29.725 64.397 29.822 64.461 29.92 64.524 30.018 64.586 30.117 64.647 30.218 64.706 30.318 64.765 30.42 64.822 30.523 64.878 30.626 64.932 30.729 64.986 30.835 65.038 30.939 65.089 31.047 65.139 31.154 65.187 31.262 65.234 31.37 65.28 31.479 65.324 31.588 65.368 31.699 65.41 31.811 65.45 31.922 65.489 32.034 65.527 32.147 65.563 32.26 65.599 32.374 65.632 32.489 65.665 32.605 65.696 32.721 65.725 32.837 65.753 32.954 65.78 33.071 65.805 33.189 65.829 33.308 65.851 33.427 65.872 33.547 65.891 33.667 65.909 33.787 65.925 33.908 65.94 34.03 65.954 34.152 65.965 34.274 65.976 34.397 65.984 34.521 65.991 34.644 65.997 34.768 66.001 34.892 66.003 35.017 66.004 35.142 66.004 35.267 66.002 35.392 65.998 35.516 65.992 35.639 65.985 35.762 65.977 35.886 65.966 36.009 65.955 36.131 65.941 36.254 65.926 36.375 65.91 36.495 65.892 36.616 65.873 36.736 65.852 36.855 65.83 36.975 65.806 37.094 65.781 37.211 65.754 37.329 65.726 37.445 65.697 37.563 65.666 37.678 65.6 37.908 65.565 38.022 65.528 38.135 65.49 38.248 65.451 38.361 65.411 38.473 65.369 38.583 65.325 38.694 65.281 38.805 65.235 38.914 65.188 39.021 65.14 39.129 65.09 39.236 65.039 39.343 64.987 39.447 64.933 39.553 64.878 39.658 64.823 39.76 64.766 39.862 64.707 39.964 64.648 40.065 64.587 40.166 64.525 40.265 64.462 40.363 64.398 40.461 64.333 40.559 64.267 40.653 64.199 40.749 64.13 40.844 64.06 40.938 63.989 41.03 63.917 41.121 63.844 41.212 63.77 41.302 63.694 41.393 63.618 41.48 63.541 41.567 63.463 41.653 63.383 41.739 63.303 41.823 63.221 41.907 63.139 41.989 63.056 42.071 62.886 42.23 62.8 42.309 62.712 42.387 62.625 42.463 62.535 42.539 62.445 42.613 62.355 42.686 62.263 42.758 62.169 42.83 62.076 42.899 61.982 42.969 61.886 43.037 61.79 43.104 61.693 43.168 61.595 43.233 61.497 43.297 61.397 43.359 61.297 43.42 61.195 43.48 61.094 43.54 60.991 43.597 60.888 43.653 60.783 43.708 60.678 43.763 60.573 43.814 60.467 43.866 60.359 43.918 60.251 43.966 60.143 44.014 60.033 44.061 59.923 44.105 59.813 44.15 59.702 44.192 59.59 44.234 59.477 44.274 59.364 44.313 59.25 44.35 59.135 44.386 59.021 44.42 58.905 44.454 58.789 44.486 58.672 44.516 58.555 44.545 58.436 44.573 58.318 44.599 58.2 44.624 58.08 44.648 57.96 44.669 57.839 44.69 57.718 44.709 57.597 44.727 57.475 44.743 57.352 44.757 57.229 44.77 57.107 44.782 56.983 44.792 56.859 44.801 56.735 44.808 56.61 44.813 56.484 44.817 56.359 44.82 56.239 44.82"></polyline>
                <path d="M51.863,43.818 L51.822,43.817 L51.782,43.816 L51.742,43.813 L51.702,43.81 L51.662,43.806 L51.623,43.801 L51.584,43.794 L51.545,43.788 L51.507,43.78 L51.469,43.771 L51.431,43.761 L51.394,43.751 L51.357,43.74 L51.32,43.728 L51.284,43.715 L51.249,43.701 L51.214,43.687 L51.179,43.671 L51.145,43.655 L51.111,43.639 L51.078,43.621 L51.045,43.603 L51.012,43.584 L50.981,43.564 L50.949,43.544 L50.919,43.523 L50.889,43.501 L50.859,43.479 L50.83,43.456 L50.802,43.433 L50.774,43.408 L50.747,43.383 L50.695,43.332 L50.67,43.305 L50.645,43.278 L50.621,43.251 L50.598,43.222 L50.576,43.192 L50.554,43.164 L50.533,43.134 L50.513,43.104 L50.494,43.073 L50.475,43.042 L50.457,43.01 L50.44,42.978 L50.424,42.944 L50.409,42.911 L50.394,42.878 L50.381,42.845 L50.368,42.811 L50.356,42.775 L50.345,42.74 L50.334,42.706 L50.325,42.67 L50.309,42.598 L50.297,42.523 L50.289,42.449 L50.285,42.373 L50.285,27.478 L50.289,27.401 L50.293,27.364 L50.297,27.326 L50.303,27.289 L50.309,27.253 L50.317,27.216 L50.325,27.18 L50.334,27.146 L50.345,27.109 L50.356,27.074 L50.368,27.04 L50.381,27.005 L50.394,26.973 L50.409,26.938 L50.424,26.905 L50.44,26.873 L50.457,26.84 L50.475,26.809 L50.494,26.777 L50.513,26.747 L50.533,26.716 L50.554,26.686 L50.576,26.657 L50.598,26.628 L50.621,26.6 L50.645,26.572 L50.67,26.545 L50.695,26.52 L50.721,26.493 L50.747,26.467 L50.774,26.442 L50.802,26.418 L50.83,26.396 L50.859,26.372 L50.889,26.35 L50.919,26.328 L50.949,26.307 L50.981,26.286 L51.012,26.267 L51.045,26.248 L51.111,26.212 L51.145,26.195 L51.179,26.179 L51.214,26.164 L51.249,26.15 L51.284,26.136 L51.32,26.123 L51.357,26.111 L51.394,26.1 L51.431,26.089 L51.507,26.071 L51.545,26.063 L51.584,26.056 L51.623,26.05 L51.662,26.045 L51.702,26.041 L51.742,26.038 L51.782,26.035 L51.822,26.034 L51.863,26.033 L55.061,26.033 L55.101,26.034 L55.142,26.037 L55.182,26.04 L55.221,26.044 L55.261,26.049 L55.3,26.055 L55.338,26.063 L55.377,26.07 L55.415,26.079 L55.452,26.088 L55.49,26.099 L55.526,26.11 L55.563,26.122 L55.599,26.135 L55.635,26.149 L55.67,26.163 L55.705,26.178 L55.739,26.194 L55.773,26.211 L55.806,26.229 L55.839,26.247 L55.903,26.285 L55.965,26.327 L55.995,26.349 L56.024,26.371 L56.053,26.395 L56.082,26.417 L56.109,26.441 L56.136,26.466 L56.163,26.492 L56.189,26.519 L56.214,26.544 L56.238,26.571 L56.262,26.599 L56.285,26.627 L56.329,26.686 L56.35,26.715 L56.37,26.746 L56.39,26.776 L56.408,26.809 L56.426,26.839 L56.443,26.872 L56.459,26.904 L56.475,26.938 L56.489,26.972 L56.503,27.004 L56.516,27.039 L56.528,27.073 L56.539,27.108 L56.549,27.145 L56.558,27.179 L56.567,27.215 L56.574,27.252 L56.58,27.289 L56.586,27.325 L56.591,27.363 L56.594,27.4 L56.597,27.438 L56.599,27.515 L56.599,42.372 L56.598,42.41 L56.595,42.448 L56.592,42.485 L56.587,42.522 L56.581,42.56 L56.575,42.597 L56.568,42.633 L56.559,42.669 L56.55,42.705 L56.54,42.74 L56.529,42.774 L56.517,42.81 L56.504,42.844 L56.49,42.877 L56.476,42.91 L56.444,42.977 L56.427,43.009 L56.409,43.041 L56.391,43.072 L56.371,43.103 L56.351,43.133 L56.33,43.163 L56.308,43.191 L56.286,43.221 L56.263,43.25 L56.215,43.304 L56.19,43.331 L56.164,43.356 L56.11,43.407 L56.083,43.432 L56.054,43.455 L56.025,43.478 L55.996,43.5 L55.966,43.522 L55.935,43.543 L55.904,43.563 L55.872,43.583 L55.84,43.602 L55.807,43.62 L55.774,43.638 L55.74,43.654 L55.706,43.67 L55.671,43.686 L55.636,43.7 L55.6,43.714 L55.564,43.727 L55.527,43.739 L55.491,43.75 L55.453,43.76 L55.416,43.77 L55.378,43.779 L55.339,43.787 L55.301,43.793 L55.262,43.8 L55.222,43.805 L55.183,43.809 L55.143,43.812 L55.102,43.815 L55.062,43.816 L51.864,43.816 L51.863,43.818 Z M52.285,41.818 L54.599,41.818 L54.599,28.034 L52.285,28.034 L52.285,41.818 Z" id="Fill-3695" fill="#F34791"></path>
                <polyline id="Fill-3696" fill="#8D5DDD" points="10.763 44.82 10.643 44.82 10.518 44.817 10.392 44.813 10.267 44.808 10.143 44.801 10.019 44.792 9.895 44.782 9.773 44.77 9.65 44.757 9.527 44.743 9.405 44.727 9.284 44.709 9.163 44.69 9.042 44.669 8.922 44.648 8.802 44.624 8.566 44.573 8.447 44.545 8.33 44.516 8.213 44.486 8.097 44.454 7.981 44.42 7.866 44.386 7.752 44.35 7.638 44.313 7.525 44.274 7.412 44.234 7.3 44.192 7.189 44.15 7.079 44.105 6.968 44.061 6.859 44.014 6.643 43.918 6.536 43.866 6.429 43.814 6.323 43.763 6.218 43.708 6.114 43.653 6.011 43.597 5.908 43.54 5.807 43.48 5.705 43.42 5.604 43.359 5.505 43.297 5.407 43.233 5.309 43.168 5.212 43.104 5.116 43.037 5.02 42.969 4.926 42.899 4.832 42.83 4.739 42.758 4.647 42.686 4.557 42.613 4.467 42.539 4.377 42.463 4.29 42.387 4.202 42.309 4.116 42.23 3.946 42.071 3.78 41.907 3.699 41.823 3.619 41.739 3.539 41.653 3.461 41.567 3.384 41.48 3.307 41.393 3.232 41.302 3.158 41.212 3.085 41.121 3.013 41.03 2.942 40.938 2.872 40.844 2.803 40.749 2.735 40.653 2.669 40.557 2.604 40.461 2.54 40.363 2.476 40.264 2.415 40.165 2.354 40.065 2.295 39.964 2.236 39.862 2.179 39.759 2.123 39.657 2.068 39.553 2.015 39.447 1.963 39.342 1.912 39.236 1.862 39.128 1.814 39.021 1.767 38.912 1.721 38.804 1.676 38.694 1.633 38.583 1.591 38.474 1.551 38.361 1.511 38.248 1.437 38.022 1.402 37.908 1.368 37.793 1.336 37.678 1.305 37.563 1.276 37.445 1.248 37.329 1.221 37.211 1.196 37.094 1.172 36.975 1.15 36.855 1.129 36.736 1.11 36.616 1.092 36.495 1.075 36.375 1.061 36.254 1.047 36.131 1.036 36.009 1.025 35.886 1.017 35.762 1.01 35.639 1.004 35.516 1 35.392 0.998 35.267 0.997 35.142 0.998 35.017 1 34.892 1.004 34.768 1.01 34.644 1.017 34.521 1.025 34.397 1.036 34.274 1.047 34.152 1.061 34.03 1.075 33.908 1.092 33.787 1.11 33.667 1.129 33.546 1.15 33.427 1.172 33.31 1.196 33.189 1.221 33.071 1.248 32.955 1.276 32.838 1.305 32.722 1.336 32.605 1.368 32.489 1.402 32.375 1.437 32.261 1.474 32.147 1.511 32.035 1.551 31.923 1.591 31.81 1.633 31.7 1.676 31.589 1.721 31.479 1.767 31.371 1.814 31.263 1.862 31.154 1.912 31.047 1.963 30.94 2.015 30.835 2.069 30.73 2.123 30.626 2.179 30.523 2.236 30.42 2.295 30.318 2.354 30.218 2.415 30.117 2.477 30.019 2.54 29.92 2.604 29.822 2.669 29.726 2.735 29.629 2.803 29.533 2.872 29.439 2.942 29.346 3.013 29.253 3.085 29.161 3.158 29.07 3.232 28.98 3.307 28.891 3.384 28.803 3.461 28.715 3.539 28.629 3.619 28.544 3.699 28.46 3.78 28.376 3.863 28.293 3.946 28.212 4.031 28.131 4.116 28.052 4.202 27.974 4.289 27.896 4.378 27.819 4.467 27.744 4.557 27.669 4.648 27.596 4.739 27.524 4.832 27.453 4.926 27.382 5.02 27.313 5.116 27.245 5.212 27.179 5.309 27.113 5.407 27.048 5.505 26.985 5.604 26.923 5.705 26.861 5.806 26.801 5.908 26.743 6.011 26.686 6.114 26.629 6.218 26.574 6.323 26.519 6.429 26.467 6.536 26.415 6.643 26.365 6.751 26.316 6.859 26.268 6.968 26.222 7.078 26.176 7.189 26.132 7.3 26.09 7.412 26.049 7.525 26.008 7.638 25.97 7.752 25.933 7.866 25.897 7.981 25.862 8.097 25.829 8.213 25.797 8.33 25.766 8.447 25.737 8.565 25.709 8.684 25.683 8.803 25.658 8.922 25.635 9.042 25.613 9.163 25.592 9.283 25.573 9.405 25.556 9.527 25.54 9.649 25.525 9.772 25.512 9.896 25.5 10.019 25.49 10.143 25.482 10.267 25.475 10.392 25.469 10.518 25.465 10.643 25.463 10.762 25.462 10.776 27.462 10.668 27.462 10.568 27.464 10.467 27.467 10.368 27.471 10.269 27.477 10.169 27.484 10.07 27.492 9.972 27.501 9.874 27.511 9.776 27.523 9.679 27.536 9.583 27.55 9.486 27.564 9.39 27.581 9.295 27.599 9.199 27.618 9.105 27.637 8.917 27.68 8.823 27.703 8.73 27.728 8.638 27.753 8.546 27.779 8.455 27.807 8.364 27.836 8.273 27.865 8.183 27.896 8.093 27.928 8.004 27.961 7.916 27.995 7.828 28.03 7.741 28.066 7.653 28.104 7.567 28.141 7.482 28.18 7.396 28.22 7.311 28.261 7.227 28.303 7.144 28.345 7.061 28.389 6.979 28.434 6.897 28.48 6.816 28.527 6.735 28.575 6.656 28.623 6.577 28.673 6.498 28.725 6.42 28.775 6.343 28.827 6.266 28.88 6.19 28.935 6.115 28.989 6.041 29.045 5.967 29.103 5.894 29.159 5.75 29.277 5.679 29.337 5.609 29.398 5.54 29.459 5.471 29.522 5.403 29.585 5.336 29.649 5.269 29.714 5.204 29.78 5.14 29.847 5.075 29.914 5.012 29.981 4.888 30.119 4.828 30.189 4.768 30.26 4.709 30.332 4.651 30.404 4.594 30.477 4.537 30.55 4.482 30.625 4.427 30.7 4.374 30.775 4.321 30.852 4.269 30.928 4.218 31.006 4.168 31.084 4.119 31.163 4.071 31.243 3.977 31.403 3.932 31.484 3.888 31.567 3.844 31.649 3.802 31.731 3.761 31.815 3.72 31.9 3.681 31.984 3.643 32.069 3.606 32.155 3.569 32.242 3.534 32.328 3.5 32.415 3.467 32.503 3.435 32.591 3.404 32.68 3.374 32.769 3.345 32.859 3.317 32.949 3.265 33.131 3.241 33.223 3.195 33.408 3.174 33.5 3.154 33.594 3.136 33.688 3.118 33.781 3.101 33.876 3.086 33.971 3.072 34.066 3.059 34.162 3.047 34.258 3.037 34.355 3.028 34.452 3.019 34.549 3.013 34.646 3.007 34.745 3.003 34.843 2.999 34.942 2.997 35.041 2.997 35.24 2.999 35.338 3.003 35.437 3.007 35.536 3.013 35.634 3.019 35.731 3.028 35.828 3.037 35.925 3.047 36.022 3.059 36.118 3.072 36.214 3.086 36.309 3.101 36.404 3.118 36.499 3.154 36.687 3.174 36.78 3.195 36.873 3.241 37.058 3.265 37.149 3.317 37.331 3.345 37.421 3.374 37.511 3.404 37.601 3.435 37.689 3.467 37.777 3.5 37.865 3.534 37.952 3.569 38.039 3.606 38.125 3.643 38.211 3.681 38.297 3.721 38.381 3.761 38.464 3.802 38.548 3.845 38.631 3.888 38.713 3.932 38.795 4.024 38.958 4.071 39.037 4.119 39.116 4.168 39.195 4.218 39.273 4.269 39.352 4.321 39.429 4.374 39.506 4.427 39.58 4.482 39.656 4.537 39.729 4.594 39.804 4.651 39.877 4.709 39.949 4.768 40.02 4.828 40.091 4.888 40.161 4.95 40.231 5.012 40.299 5.075 40.367 5.139 40.435 5.204 40.501 5.27 40.567 5.336 40.631 5.403 40.695 5.471 40.759 5.539 40.821 5.609 40.882 5.679 40.944 5.75 41.004 5.821 41.062 5.894 41.121 5.967 41.179 6.115 41.291 6.191 41.346 6.266 41.4 6.343 41.453 6.42 41.506 6.498 41.557 6.577 41.608 6.735 41.706 6.815 41.753 6.897 41.8 6.979 41.846 7.061 41.891 7.144 41.936 7.227 41.979 7.312 42.02 7.396 42.061 7.481 42.102 7.567 42.14 7.654 42.178 7.741 42.215 7.828 42.251 7.916 42.286 8.005 42.32 8.093 42.353 8.183 42.384 8.273 42.415 8.364 42.445 8.454 42.473 8.546 42.501 8.638 42.527 8.73 42.553 8.824 42.577 9.01 42.622 9.105 42.643 9.2 42.663 9.295 42.681 9.39 42.699 9.486 42.715 9.582 42.731 9.679 42.744 9.777 42.757 9.874 42.769 9.972 42.779 10.071 42.789 10.169 42.797 10.268 42.804 10.368 42.809 10.467 42.813 10.568 42.816 10.668 42.819 10.775 42.819 10.763 44.819"></polyline>
                <path d="M11.98,43.818 L11.898,43.816 L11.858,43.813 L11.818,43.81 L11.779,43.806 L11.739,43.801 L11.7,43.794 L11.662,43.788 L11.623,43.78 L11.585,43.771 L11.548,43.761 L11.51,43.751 L11.473,43.74 L11.437,43.728 L11.401,43.715 L11.365,43.701 L11.33,43.687 L11.295,43.671 L11.261,43.655 L11.227,43.639 L11.194,43.621 L11.161,43.603 L11.129,43.584 L11.097,43.564 L11.066,43.544 L11.035,43.523 L11.005,43.501 L10.976,43.479 L10.947,43.456 L10.918,43.433 L10.891,43.408 L10.863,43.383 L10.811,43.332 L10.786,43.305 L10.762,43.278 L10.738,43.251 L10.715,43.222 L10.692,43.192 L10.671,43.164 L10.65,43.134 L10.63,43.104 L10.61,43.073 L10.592,43.042 L10.574,43.01 L10.557,42.978 L10.525,42.911 L10.511,42.878 L10.497,42.845 L10.484,42.811 L10.472,42.775 L10.461,42.74 L10.451,42.706 L10.433,42.634 L10.426,42.598 L10.419,42.561 L10.409,42.486 L10.406,42.449 L10.403,42.411 L10.402,42.373 L10.402,27.516 L10.404,27.439 L10.407,27.401 L10.41,27.364 L10.415,27.326 L10.42,27.289 L10.427,27.253 L10.434,27.216 L10.443,27.18 L10.452,27.146 L10.462,27.109 L10.473,27.074 L10.485,27.04 L10.498,27.005 L10.512,26.973 L10.526,26.938 L10.542,26.905 L10.558,26.873 L10.575,26.84 L10.593,26.809 L10.611,26.777 L10.631,26.747 L10.651,26.716 L10.672,26.686 L10.693,26.657 L10.716,26.628 L10.739,26.6 L10.763,26.572 L10.787,26.545 L10.812,26.52 L10.838,26.493 L10.864,26.467 L10.892,26.442 L10.919,26.418 L10.948,26.396 L10.977,26.372 L11.006,26.35 L11.036,26.328 L11.098,26.286 L11.162,26.248 L11.195,26.23 L11.228,26.212 L11.262,26.195 L11.296,26.179 L11.331,26.164 L11.366,26.15 L11.402,26.136 L11.438,26.123 L11.474,26.111 L11.511,26.1 L11.549,26.089 L11.586,26.08 L11.624,26.071 L11.663,26.063 L11.701,26.056 L11.74,26.05 L11.78,26.045 L11.819,26.041 L11.859,26.038 L11.899,26.035 L11.981,26.033 L15.178,26.033 L15.219,26.034 L15.259,26.037 L15.299,26.04 L15.339,26.044 L15.378,26.049 L15.417,26.055 L15.456,26.063 L15.494,26.07 L15.57,26.088 L15.607,26.099 L15.644,26.11 L15.68,26.122 L15.716,26.135 L15.752,26.149 L15.787,26.163 L15.822,26.178 L15.856,26.194 L15.89,26.211 L15.923,26.229 L15.956,26.247 L16.02,26.285 L16.082,26.327 L16.112,26.349 L16.142,26.371 L16.171,26.395 L16.199,26.417 L16.227,26.441 L16.254,26.466 L16.28,26.492 L16.306,26.519 L16.331,26.544 L16.356,26.571 L16.379,26.599 L16.403,26.627 L16.425,26.656 L16.447,26.686 L16.467,26.715 L16.488,26.746 L16.507,26.776 L16.526,26.809 L16.543,26.839 L16.56,26.872 L16.577,26.904 L16.592,26.938 L16.607,26.972 L16.62,27.004 L16.633,27.039 L16.645,27.073 L16.656,27.108 L16.666,27.145 L16.676,27.179 L16.684,27.215 L16.691,27.252 L16.698,27.289 L16.703,27.325 L16.708,27.363 L16.712,27.4 L16.716,27.477 L16.716,42.372 L16.712,42.448 L16.708,42.485 L16.698,42.56 L16.691,42.597 L16.684,42.633 L16.676,42.669 L16.666,42.705 L16.656,42.74 L16.645,42.774 L16.633,42.81 L16.62,42.844 L16.607,42.877 L16.592,42.91 L16.577,42.943 L16.56,42.977 L16.526,43.041 L16.507,43.072 L16.488,43.103 L16.467,43.133 L16.447,43.163 L16.425,43.191 L16.403,43.221 L16.379,43.25 L16.356,43.277 L16.331,43.304 L16.306,43.331 L16.254,43.382 L16.227,43.407 L16.199,43.432 L16.171,43.455 L16.142,43.478 L16.112,43.5 L16.082,43.522 L16.051,43.543 L16.02,43.563 L15.988,43.583 L15.956,43.602 L15.923,43.62 L15.89,43.638 L15.856,43.654 L15.822,43.67 L15.787,43.686 L15.752,43.7 L15.716,43.714 L15.68,43.727 L15.644,43.739 L15.607,43.75 L15.57,43.76 L15.532,43.77 L15.494,43.779 L15.456,43.787 L15.417,43.793 L15.378,43.8 L15.339,43.805 L15.299,43.809 L15.259,43.812 L15.219,43.815 L15.178,43.816 L11.981,43.816 L11.98,43.818 Z M12.401,41.818 L14.715,41.818 L14.715,28.034 L12.401,28.034 L12.401,41.818 Z" id="Fill-3697" fill="#F34791"></path>
                <polyline id="Fill-3698" fill="#F34791" points="34.548 46.909 34.228 46.908 33.907 46.906 33.59 46.903 33.274 46.9 32.961 46.894 32.651 46.888 32.342 46.881 32.036 46.873 31.732 46.864 31.431 46.854 31.132 46.842 30.835 46.83 30.541 46.817 30.249 46.803 29.959 46.788 29.672 46.772 29.387 46.756 29.104 46.738 28.824 46.72 28.546 46.7 28.271 46.68 27.998 46.66 27.727 46.638 27.459 46.616 27.193 46.593 26.929 46.569 26.668 46.544 26.409 46.52 26.153 46.493 25.899 46.467 25.647 46.44 25.398 46.412 25.151 46.385 24.907 46.355 24.665 46.326 24.426 46.296 24.189 46.267 23.954 46.235 23.722 46.203 23.492 46.171 23.265 46.139 23.039 46.106 22.597 46.04 22.165 45.972 21.742 45.903 21.329 45.832 20.926 45.76 20.532 45.688 20.149 45.615 19.775 45.541 19.412 45.466 19.059 45.392 18.715 45.317 18.382 45.242 18.059 45.167 17.745 45.093 17.442 45.018 17.149 44.945 16.866 44.872 16.594 44.8 16.331 44.729 16.079 44.659 15.837 44.59 15.605 44.523 15.384 44.457 15.173 44.393 14.972 44.331 14.782 44.271 14.602 44.213 14.273 44.104 14.125 44.053 13.985 44.005 13.742 43.918 13.54 43.843 13.381 43.782 13.262 43.735 13.17 43.697 13.93 41.847 14.01 41.88 14.105 41.918 14.245 41.971 14.426 42.038 14.651 42.119 14.777 42.162 14.915 42.21 15.063 42.259 15.221 42.312 15.39 42.366 15.569 42.422 15.759 42.481 15.959 42.542 16.168 42.604 16.389 42.668 16.619 42.733 16.86 42.8 17.11 42.868 17.371 42.938 17.642 43.007 17.923 43.077 18.214 43.148 18.515 43.221 18.826 43.292 19.147 43.364 19.478 43.437 19.819 43.508 20.17 43.58 20.531 43.651 20.901 43.722 21.282 43.792 21.672 43.862 22.072 43.93 22.482 43.997 22.902 44.063 23.331 44.128 23.549 44.16 23.77 44.191 23.993 44.223 24.218 44.252 24.446 44.282 24.677 44.313 24.909 44.341 25.145 44.369 25.382 44.397 25.622 44.425 25.864 44.452 26.109 44.478 26.357 44.504 26.606 44.529 26.858 44.553 27.112 44.577 27.369 44.6 27.628 44.623 27.889 44.644 28.153 44.666 28.419 44.686 28.688 44.705 28.959 44.724 29.232 44.742 29.507 44.759 29.785 44.775 30.066 44.791 30.348 44.806 30.633 44.819 30.921 44.832 31.21 44.844 31.502 44.854 31.797 44.865 32.093 44.874 32.392 44.882 32.694 44.889 32.997 44.895 33.303 44.899 33.611 44.903 33.922 44.906 34.235 44.908 34.552 44.908 34.548 46.908"></polyline>
                <path d="M32.975,48 L32.88,47.999 L32.786,47.997 L32.692,47.994 L32.599,47.989 L32.507,47.983 L32.415,47.976 L32.324,47.967 L32.234,47.957 L32.145,47.946 L32.057,47.934 L31.969,47.92 L31.882,47.906 L31.796,47.89 L31.711,47.873 L31.627,47.854 L31.544,47.835 L31.463,47.814 L31.382,47.793 L31.302,47.771 L31.223,47.747 L31.146,47.723 L31.069,47.697 L30.994,47.67 L30.92,47.642 L30.848,47.614 L30.776,47.584 L30.706,47.554 L30.637,47.522 L30.57,47.49 L30.504,47.456 L30.439,47.422 L30.376,47.387 L30.315,47.351 L30.255,47.314 L30.196,47.277 L30.139,47.238 L30.084,47.199 L30.03,47.159 L29.978,47.119 L29.928,47.078 L29.879,47.035 L29.832,46.993 L29.787,46.949 L29.743,46.905 L29.702,46.86 L29.662,46.815 L29.625,46.769 L29.589,46.722 L29.555,46.675 L29.523,46.627 L29.493,46.579 L29.465,46.53 L29.439,46.48 L29.416,46.431 L29.394,46.381 L29.375,46.33 L29.357,46.279 L29.342,46.227 L29.329,46.175 L29.319,46.122 L29.311,46.068 L29.305,46.016 L29.301,45.963 L29.3,45.909 L29.301,45.855 L29.305,45.801 L29.311,45.748 L29.319,45.695 L29.329,45.642 L29.342,45.59 L29.357,45.539 L29.375,45.487 L29.394,45.436 L29.416,45.386 L29.439,45.336 L29.465,45.287 L29.493,45.238 L29.523,45.19 L29.555,45.142 L29.589,45.095 L29.625,45.048 L29.662,45.002 L29.702,44.957 L29.743,44.912 L29.787,44.868 L29.832,44.824 L29.879,44.782 L29.928,44.74 L29.978,44.698 L30.03,44.658 L30.084,44.618 L30.139,44.579 L30.196,44.54 L30.255,44.503 L30.315,44.466 L30.376,44.43 L30.439,44.395 L30.504,44.361 L30.637,44.295 L30.706,44.264 L30.776,44.233 L30.848,44.203 L30.92,44.175 L30.994,44.147 L31.069,44.12 L31.146,44.095 L31.223,44.07 L31.302,44.046 L31.382,44.024 L31.463,44.002 L31.544,43.982 L31.627,43.963 L31.711,43.945 L31.796,43.928 L31.882,43.912 L31.969,43.897 L32.057,43.883 L32.145,43.871 L32.234,43.86 L32.324,43.85 L32.415,43.842 L32.507,43.834 L32.599,43.828 L32.692,43.824 L32.786,43.82 L32.88,43.818 L33.07,43.818 L33.164,43.82 L33.258,43.824 L33.351,43.828 L33.443,43.834 L33.535,43.842 L33.626,43.85 L33.716,43.86 L33.805,43.871 L33.893,43.883 L33.981,43.897 L34.068,43.912 L34.154,43.928 L34.239,43.945 L34.322,43.963 L34.405,43.982 L34.487,44.002 L34.568,44.024 L34.648,44.046 L34.727,44.07 L34.804,44.095 L34.881,44.12 L34.956,44.147 L35.03,44.175 L35.102,44.203 L35.174,44.233 L35.244,44.264 L35.313,44.295 L35.38,44.328 L35.446,44.361 L35.51,44.395 L35.574,44.43 L35.635,44.466 L35.695,44.503 L35.754,44.54 L35.811,44.579 L35.866,44.618 L35.92,44.658 L35.972,44.698 L36.022,44.74 L36.071,44.782 L36.118,44.824 L36.163,44.868 L36.206,44.912 L36.248,44.957 L36.288,45.002 L36.325,45.048 L36.361,45.095 L36.395,45.142 L36.427,45.19 L36.457,45.238 L36.485,45.287 L36.511,45.336 L36.534,45.386 L36.556,45.436 L36.575,45.487 L36.593,45.539 L36.608,45.59 L36.62,45.642 L36.631,45.695 L36.639,45.748 L36.645,45.801 L36.649,45.855 L36.65,45.909 L36.649,45.963 L36.645,46.016 L36.639,46.068 L36.631,46.122 L36.62,46.175 L36.608,46.227 L36.593,46.279 L36.575,46.33 L36.556,46.381 L36.534,46.431 L36.511,46.48 L36.485,46.53 L36.457,46.579 L36.427,46.627 L36.395,46.675 L36.361,46.722 L36.325,46.769 L36.288,46.815 L36.248,46.86 L36.206,46.905 L36.163,46.949 L36.118,46.993 L36.071,47.035 L36.022,47.078 L35.972,47.119 L35.92,47.159 L35.866,47.199 L35.811,47.238 L35.754,47.277 L35.695,47.314 L35.635,47.351 L35.574,47.387 L35.51,47.422 L35.446,47.456 L35.38,47.49 L35.313,47.522 L35.244,47.554 L35.174,47.584 L35.102,47.614 L35.03,47.642 L34.956,47.67 L34.881,47.697 L34.804,47.723 L34.727,47.747 L34.648,47.771 L34.568,47.793 L34.487,47.814 L34.405,47.835 L34.322,47.854 L34.239,47.873 L34.154,47.89 L34.068,47.906 L33.981,47.92 L33.893,47.934 L33.805,47.946 L33.716,47.957 L33.626,47.967 L33.535,47.976 L33.443,47.983 L33.351,47.989 L33.258,47.994 L33.164,47.997 L33.07,47.999 L32.975,47.999 L32.975,48 Z M32.975,46 L33.041,45.999 L33.106,45.998 L33.171,45.995 L33.236,45.992 L33.298,45.988 L33.361,45.983 L33.423,45.978 L33.485,45.971 L33.545,45.963 L33.603,45.955 L33.662,45.946 L33.719,45.937 L33.775,45.926 L33.83,45.915 L33.859,45.909 L33.83,45.902 L33.775,45.891 L33.72,45.881 L33.662,45.871 L33.603,45.862 L33.545,45.854 L33.485,45.847 L33.423,45.84 L33.361,45.834 L33.298,45.829 L33.236,45.825 L33.171,45.822 L33.041,45.817 L32.909,45.817 L32.844,45.82 L32.779,45.822 L32.714,45.825 L32.651,45.829 L32.589,45.834 L32.527,45.84 L32.465,45.847 L32.405,45.854 L32.347,45.862 L32.288,45.871 L32.23,45.881 L32.175,45.891 L32.119,45.903 L32.091,45.909 L32.119,45.915 L32.175,45.926 L32.231,45.937 L32.288,45.946 L32.347,45.955 L32.405,45.963 L32.465,45.971 L32.527,45.978 L32.589,45.983 L32.651,45.988 L32.714,45.992 L32.779,45.995 L32.844,45.998 L32.909,45.999 L32.975,45.999 L32.975,46 Z" id="Fill-3699" fill="#F34791"></path>
            </g>
        </g>
    </g>
</svg>