<?xml version="1.0" encoding="UTF-8"?>
<svg width="51px" height="46px" viewBox="0 0 51 46" version="1.1" xmlns="http://www.w3.org/2000/svg" xmlns:xlink="http://www.w3.org/1999/xlink">
    <!-- Generator: Sketch 48.1 (47250) - http://www.bohemiancoding.com/sketch -->
    <title>customazible</title>
    <desc>Created with Sketch.</desc>
    <defs></defs>
    <g id="Page-1" stroke="none" stroke-width="1" fill="none" fill-rule="evenodd">
        <g id="MoviApp_2" transform="translate(-1062.000000, -1453.000000)">
            <g id="customazible" transform="translate(1062.000000, 1453.000000)">
                <path d="M12.75,45.006 L0,23 L12.75,0.992 L38.25,0.992 L51,23 L38.25,45.006 L12.75,45.006 Z M13.903,43.006 L37.097,43.006 L48.689,23 L37.097,2.992 L13.903,2.992 L2.311,23 L13.903,43.006 Z" id="Fill-3700" fill="#8D5DDD"></path>
                <path d="M25.498,33.004 L25.363,33.003 L25.227,33.001 L25.092,32.996 L24.958,32.99 L24.824,32.983 L24.69,32.974 L24.557,32.963 L24.424,32.95 L24.292,32.936 L24.161,32.92 L24.029,32.902 L23.899,32.883 L23.769,32.862 L23.639,32.84 L23.51,32.816 L23.381,32.791 L23.253,32.764 L23.126,32.735 L22.999,32.705 L22.873,32.673 L22.748,32.64 L22.623,32.605 L22.498,32.568 L22.375,32.532 L22.252,32.493 L22.129,32.452 L22.008,32.41 L21.887,32.367 L21.766,32.322 L21.647,32.274 L21.528,32.228 L21.41,32.178 L21.292,32.128 L21.175,32.076 L21.059,32.022 L20.944,31.968 L20.83,31.912 L20.716,31.854 L20.603,31.796 L20.491,31.735 L20.38,31.675 L20.27,31.612 L20.16,31.548 L20.051,31.483 L19.944,31.417 L19.837,31.349 L19.73,31.28 L19.625,31.21 L19.521,31.138 L19.417,31.066 L19.315,30.992 L19.213,30.917 L19.113,30.84 L19.013,30.763 L18.914,30.684 L18.817,30.604 L18.72,30.523 L18.624,30.441 L18.529,30.358 L18.435,30.273 L18.343,30.188 L18.251,30.103 L18.16,30.015 L18.071,29.927 L17.982,29.836 L17.895,29.746 L17.808,29.653 L17.723,29.562 L17.639,29.467 L17.555,29.373 L17.473,29.276 L17.393,29.18 L17.313,29.082 L17.234,28.983 L17.157,28.883 L17.081,28.782 L17.006,28.682 L16.932,28.578 L16.859,28.476 L16.788,28.371 L16.718,28.266 L16.649,28.16 L16.581,28.053 L16.515,27.944 L16.449,27.835 L16.386,27.727 L16.323,27.615 L16.262,27.504 L16.202,27.393 L16.143,27.279 L16.086,27.165 L16.03,27.052 L15.975,26.937 L15.922,26.82 L15.87,26.703 L15.819,26.586 L15.77,26.467 L15.722,26.349 L15.676,26.229 L15.631,26.108 L15.588,25.987 L15.546,25.866 L15.505,25.743 L15.466,25.62 L15.392,25.372 L15.358,25.248 L15.325,25.123 L15.293,24.996 L15.263,24.869 L15.234,24.741 L15.207,24.613 L15.182,24.485 L15.158,24.356 L15.136,24.227 L15.115,24.097 L15.096,23.965 L15.078,23.834 L15.062,23.702 L15.048,23.57 L15.035,23.438 L15.024,23.305 L15.015,23.171 L15.008,23.037 L15.002,22.902 L14.997,22.768 L14.995,22.632 L14.994,22.496 L14.995,22.36 L14.997,22.225 L15.002,22.09 L15.008,21.956 L15.015,21.821 L15.024,21.688 L15.035,21.555 L15.048,21.422 L15.062,21.29 L15.078,21.158 L15.096,21.027 L15.115,20.896 L15.136,20.766 L15.158,20.636 L15.182,20.507 L15.207,20.379 L15.234,20.251 L15.263,20.123 L15.293,19.997 L15.325,19.87 L15.358,19.745 L15.392,19.62 L15.429,19.495 L15.466,19.372 L15.505,19.249 L15.546,19.126 L15.588,19.005 L15.631,18.884 L15.676,18.763 L15.722,18.644 L15.77,18.525 L15.819,18.406 L15.87,18.289 L15.922,18.172 L15.975,18.056 L16.03,17.941 L16.086,17.827 L16.143,17.713 L16.202,17.6 L16.262,17.488 L16.323,17.377 L16.386,17.266 L16.449,17.157 L16.515,17.048 L16.581,16.94 L16.649,16.833 L16.718,16.727 L16.788,16.622 L16.859,16.517 L16.932,16.414 L17.006,16.311 L17.081,16.21 L17.157,16.109 L17.234,16.009 L17.313,15.911 L17.393,15.813 L17.473,15.716 L17.555,15.62 L17.639,15.525 L17.723,15.431 L17.808,15.339 L17.895,15.247 L17.982,15.156 L18.071,15.066 L18.16,14.978 L18.251,14.89 L18.343,14.804 L18.435,14.719 L18.529,14.634 L18.624,14.551 L18.72,14.469 L18.817,14.388 L18.914,14.309 L19.013,14.229 L19.113,14.152 L19.213,14.076 L19.315,14.001 L19.417,13.928 L19.521,13.854 L19.625,13.783 L19.73,13.712 L19.837,13.644 L19.944,13.577 L20.051,13.51 L20.16,13.444 L20.27,13.381 L20.38,13.318 L20.491,13.256 L20.603,13.196 L20.716,13.139 L20.83,13.081 L20.944,13.024 L21.059,12.971 L21.175,12.917 L21.292,12.865 L21.41,12.815 L21.528,12.766 L21.647,12.718 L21.766,12.672 L21.887,12.627 L22.008,12.583 L22.129,12.541 L22.252,12.501 L22.375,12.462 L22.498,12.424 L22.623,12.388 L22.748,12.353 L22.873,12.32 L22.999,12.288 L23.126,12.258 L23.253,12.229 L23.381,12.203 L23.51,12.177 L23.639,12.153 L23.769,12.131 L23.899,12.11 L24.029,12.091 L24.161,12.074 L24.292,12.058 L24.424,12.044 L24.557,12.031 L24.69,12.02 L24.824,12.011 L24.958,12.003 L25.092,11.997 L25.227,11.993 L25.363,11.99 L25.498,11.989 L25.634,11.99 L25.77,11.993 L25.904,11.997 L26.039,12.003 L26.173,12.011 L26.307,12.02 L26.44,12.031 L26.572,12.044 L26.705,12.058 L26.836,12.074 L26.967,12.091 L27.098,12.11 L27.228,12.131 L27.358,12.153 L27.487,12.177 L27.615,12.203 L27.743,12.229 L27.871,12.258 L27.998,12.288 L28.124,12.32 L28.249,12.353 L28.374,12.388 L28.498,12.424 L28.622,12.462 L28.745,12.501 L28.868,12.541 L28.989,12.583 L29.11,12.627 L29.231,12.672 L29.35,12.718 L29.469,12.766 L29.587,12.815 L29.705,12.865 L29.821,12.917 L29.937,12.971 L30.053,13.024 L30.167,13.081 L30.394,13.196 L30.506,13.256 L30.617,13.318 L30.727,13.381 L30.837,13.444 L30.945,13.51 L31.053,13.577 L31.16,13.644 L31.266,13.712 L31.372,13.783 L31.476,13.854 L31.579,13.928 L31.682,14.001 L31.784,14.076 L31.884,14.152 L31.984,14.229 L32.083,14.309 L32.18,14.388 L32.277,14.469 L32.373,14.551 L32.468,14.634 L32.654,14.804 L32.746,14.89 L32.837,14.978 L32.926,15.066 L33.015,15.156 L33.102,15.247 L33.189,15.339 L33.274,15.431 L33.358,15.525 L33.441,15.62 L33.523,15.716 L33.604,15.813 L33.684,15.911 L33.763,16.009 L33.84,16.109 L33.916,16.21 L33.991,16.311 L34.065,16.414 L34.138,16.517 L34.209,16.622 L34.279,16.727 L34.348,16.833 L34.416,16.94 L34.482,17.048 L34.547,17.157 L34.611,17.266 L34.674,17.377 L34.735,17.488 L34.795,17.6 L34.854,17.713 L34.911,17.827 L34.967,17.941 L35.022,18.056 L35.075,18.172 L35.127,18.289 L35.178,18.406 L35.227,18.525 L35.274,18.644 L35.321,18.763 L35.366,18.884 L35.409,19.005 L35.451,19.126 L35.492,19.249 L35.531,19.372 L35.568,19.495 L35.605,19.62 L35.639,19.745 L35.672,19.87 L35.704,19.997 L35.734,20.123 L35.763,20.251 L35.79,20.379 L35.815,20.507 L35.839,20.636 L35.861,20.766 L35.882,20.896 L35.901,21.027 L35.919,21.158 L35.935,21.29 L35.949,21.422 L35.961,21.555 L35.972,21.688 L35.982,21.821 L35.989,21.956 L35.995,22.09 L36,22.225 L36.002,22.36 L36.003,22.496 L36.003,22.632 L36.001,22.768 L35.996,22.902 L35.99,23.037 L35.983,23.171 L35.973,23.305 L35.962,23.438 L35.95,23.57 L35.936,23.702 L35.92,23.834 L35.902,23.965 L35.883,24.097 L35.862,24.227 L35.84,24.356 L35.816,24.485 L35.791,24.613 L35.764,24.741 L35.735,24.869 L35.705,24.996 L35.673,25.123 L35.64,25.248 L35.606,25.372 L35.569,25.496 L35.532,25.62 L35.493,25.743 L35.452,25.866 L35.41,25.987 L35.367,26.108 L35.322,26.229 L35.275,26.349 L35.228,26.467 L35.179,26.586 L35.128,26.703 L35.076,26.82 L35.023,26.937 L34.968,27.052 L34.912,27.165 L34.855,27.279 L34.796,27.393 L34.736,27.504 L34.675,27.615 L34.612,27.727 L34.548,27.835 L34.483,27.944 L34.417,28.053 L34.349,28.16 L34.28,28.266 L34.21,28.371 L34.139,28.476 L34.066,28.578 L33.992,28.682 L33.917,28.782 L33.841,28.883 L33.764,28.983 L33.685,29.082 L33.605,29.18 L33.524,29.276 L33.442,29.373 L33.359,29.467 L33.275,29.562 L33.19,29.653 L33.103,29.746 L33.016,29.836 L32.927,29.927 L32.838,30.015 L32.747,30.103 L32.655,30.188 L32.469,30.358 L32.374,30.441 L32.278,30.523 L32.181,30.604 L32.084,30.684 L31.985,30.763 L31.785,30.917 L31.683,30.992 L31.58,31.066 L31.477,31.138 L31.373,31.21 L31.267,31.28 L31.161,31.349 L31.054,31.417 L30.946,31.483 L30.838,31.548 L30.728,31.612 L30.618,31.675 L30.507,31.735 L30.395,31.796 L30.282,31.854 L30.168,31.912 L30.054,31.968 L29.938,32.022 L29.822,32.076 L29.706,32.128 L29.588,32.178 L29.47,32.228 L29.351,32.274 L29.232,32.322 L29.111,32.367 L28.99,32.41 L28.869,32.452 L28.746,32.493 L28.623,32.532 L28.499,32.568 L28.375,32.605 L28.25,32.64 L28.125,32.673 L27.999,32.705 L27.872,32.735 L27.744,32.764 L27.616,32.791 L27.488,32.816 L27.359,32.84 L27.229,32.862 L27.099,32.883 L26.968,32.902 L26.837,32.92 L26.706,32.936 L26.573,32.95 L26.441,32.963 L26.308,32.974 L26.174,32.983 L26.04,32.99 L25.905,32.996 L25.771,33.001 L25.635,33.003 L25.499,33.004 L25.498,33.004 Z M25.498,31.004 L25.609,31.003 L25.719,31.001 L25.828,30.998 L25.938,30.993 L26.047,30.987 L26.154,30.979 L26.263,30.97 L26.37,30.96 L26.477,30.949 L26.584,30.937 L26.69,30.922 L26.795,30.906 L26.901,30.889 L27.006,30.871 L27.111,30.852 L27.215,30.831 L27.317,30.81 L27.42,30.786 L27.523,30.762 L27.625,30.736 L27.727,30.71 L27.828,30.682 L27.928,30.653 L28.027,30.622 L28.127,30.59 L28.226,30.558 L28.325,30.524 L28.423,30.488 L28.52,30.452 L28.616,30.415 L28.712,30.376 L28.808,30.336 L28.903,30.295 L28.997,30.254 L29.091,30.211 L29.185,30.166 L29.277,30.121 L29.368,30.075 L29.46,30.027 L29.55,29.979 L29.641,29.929 L29.73,29.878 L29.819,29.827 L29.907,29.773 L29.993,29.72 L30.08,29.665 L30.167,29.608 L30.252,29.552 L30.336,29.495 L30.504,29.376 L30.585,29.315 L30.667,29.254 L30.748,29.19 L30.828,29.127 L30.907,29.063 L30.985,28.997 L31.063,28.93 L31.14,28.863 L31.216,28.795 L31.291,28.725 L31.366,28.654 L31.512,28.513 L31.584,28.439 L31.654,28.367 L31.725,28.292 L31.794,28.216 L31.862,28.141 L31.929,28.063 L31.996,27.985 L32.061,27.908 L32.126,27.829 L32.19,27.748 L32.253,27.667 L32.314,27.585 L32.375,27.503 L32.435,27.419 L32.494,27.336 L32.551,27.251 L32.609,27.166 L32.664,27.08 L32.719,26.993 L32.773,26.906 L32.826,26.818 L32.928,26.641 L32.978,26.549 L33.026,26.459 L33.074,26.368 L33.12,26.276 L33.165,26.184 L33.21,26.09 L33.252,25.996 L33.295,25.901 L33.336,25.807 L33.375,25.711 L33.414,25.615 L33.451,25.519 L33.488,25.421 L33.523,25.323 L33.556,25.226 L33.589,25.126 L33.621,25.026 L33.651,24.926 L33.681,24.826 L33.709,24.726 L33.735,24.623 L33.761,24.521 L33.785,24.419 L33.808,24.316 L33.83,24.212 L33.851,24.108 L33.87,24.004 L33.888,23.899 L33.905,23.794 L33.92,23.688 L33.935,23.581 L33.947,23.476 L33.959,23.368 L33.969,23.26 L33.978,23.152 L33.986,23.044 L33.992,22.935 L33.997,22.826 L34,22.716 L34.002,22.606 L34.003,22.495 L34.003,22.385 L34.001,22.275 L33.998,22.166 L33.993,22.057 L33.987,21.947 L33.979,21.839 L33.97,21.731 L33.96,21.623 L33.948,21.516 L33.936,21.409 L33.906,21.197 L33.889,21.092 L33.871,20.987 L33.852,20.883 L33.831,20.779 L33.809,20.675 L33.786,20.572 L33.762,20.47 L33.736,20.368 L33.71,20.267 L33.682,20.165 L33.652,20.065 L33.622,19.965 L33.59,19.865 L33.557,19.766 L33.524,19.668 L33.489,19.57 L33.415,19.376 L33.376,19.28 L33.336,19.184 L33.295,19.089 L33.211,18.901 L33.167,18.808 L33.121,18.715 L33.075,18.623 L33.027,18.533 L32.979,18.442 L32.929,18.351 L32.878,18.262 L32.826,18.173 L32.774,18.085 L32.72,17.998 L32.665,17.911 L32.61,17.825 L32.552,17.74 L32.495,17.656 L32.436,17.572 L32.376,17.488 L32.315,17.406 L32.254,17.325 L32.191,17.244 L32.127,17.163 L32.062,17.084 L31.997,17.007 L31.931,16.929 L31.795,16.774 L31.726,16.7 L31.656,16.625 L31.584,16.552 L31.513,16.479 L31.441,16.407 L31.366,16.336 L31.292,16.267 L31.217,16.197 L31.141,16.129 L31.064,16.062 L30.986,15.995 L30.908,15.93 L30.829,15.865 L30.749,15.802 L30.668,15.739 L30.586,15.677 L30.504,15.616 L30.421,15.557 L30.337,15.498 L30.253,15.439 L30.168,15.383 L30.082,15.327 L29.995,15.271 L29.907,15.218 L29.82,15.166 L29.731,15.113 L29.641,15.063 L29.552,15.014 L29.461,14.965 L29.369,14.917 L29.278,14.87 L29.186,14.825 L29.092,14.781 L28.998,14.738 L28.904,14.696 L28.809,14.655 L28.713,14.615 L28.618,14.577 L28.521,14.539 L28.423,14.503 L28.326,14.468 L28.227,14.435 L28.128,14.401 L28.029,14.369 L27.929,14.339 L27.829,14.31 L27.728,14.282 L27.625,14.255 L27.524,14.229 L27.422,14.205 L27.319,14.183 L27.215,14.16 L27.111,14.141 L27.007,14.121 L26.903,14.103 L26.797,14.086 L26.691,14.07 L26.585,14.057 L26.478,14.044 L26.372,14.032 L26.264,14.021 L26.155,14.013 L26.048,14.006 L25.939,13.999 L25.719,13.991 L25.61,13.988 L25.499,13.987 L25.389,13.987 L25.28,13.99 L25.169,13.994 L25.059,13.998 L24.843,14.012 L24.735,14.021 L24.627,14.031 L24.521,14.043 L24.414,14.056 L24.308,14.069 L24.201,14.086 L24.096,14.102 L23.992,14.12 L23.888,14.14 L23.784,14.159 L23.576,14.204 L23.474,14.229 L23.373,14.254 L23.271,14.281 L23.17,14.309 L23.07,14.338 L22.969,14.368 L22.871,14.4 L22.772,14.434 L22.673,14.467 L22.575,14.502 L22.477,14.538 L22.381,14.576 L22.286,14.614 L22.19,14.654 L22.095,14.695 L22,14.737 L21.907,14.78 L21.813,14.824 L21.721,14.869 L21.63,14.917 L21.537,14.965 L21.447,15.013 L21.358,15.062 L21.268,15.112 L21.179,15.165 L21.092,15.217 L21.003,15.271 L20.917,15.326 L20.831,15.382 L20.746,15.438 L20.662,15.497 L20.577,15.556 L20.495,15.615 L20.413,15.676 L20.33,15.738 L20.25,15.801 L20.17,15.864 L20.091,15.929 L20.012,15.994 L19.935,16.061 L19.858,16.128 L19.782,16.196 L19.707,16.266 L19.632,16.336 L19.558,16.407 L19.486,16.479 L19.415,16.551 L19.343,16.625 L19.273,16.699 L19.204,16.773 L19.068,16.928 L19.001,17.006 L18.936,17.083 L18.872,17.163 L18.808,17.243 L18.745,17.324 L18.683,17.405 L18.623,17.487 L18.563,17.571 L18.504,17.655 L18.446,17.739 L18.389,17.824 L18.334,17.91 L18.279,17.997 L18.225,18.084 L18.172,18.172 L18.121,18.261 L18.07,18.35 L18.02,18.44 L17.972,18.532 L17.924,18.622 L17.878,18.714 L17.832,18.807 L17.788,18.9 L17.745,18.994 L17.703,19.088 L17.663,19.183 L17.623,19.279 L17.584,19.375 L17.547,19.472 L17.51,19.569 L17.475,19.667 L17.441,19.765 L17.409,19.864 L17.377,19.964 L17.317,20.164 L17.289,20.265 L17.263,20.367 L17.237,20.469 L17.213,20.571 L17.19,20.674 L17.168,20.778 L17.147,20.882 L17.128,20.986 L17.11,21.091 L17.093,21.196 L17.078,21.302 L17.063,21.408 L17.039,21.622 L17.029,21.73 L17.02,21.838 L17.012,21.946 L17.006,22.055 L17.001,22.164 L16.998,22.274 L16.996,22.384 L16.995,22.494 L16.996,22.605 L16.998,22.715 L17.001,22.825 L17.006,22.934 L17.012,23.043 L17.02,23.151 L17.029,23.259 L17.039,23.367 L17.05,23.474 L17.063,23.58 L17.078,23.688 L17.093,23.793 L17.11,23.898 L17.128,24.003 L17.147,24.107 L17.168,24.211 L17.19,24.315 L17.213,24.418 L17.237,24.521 L17.263,24.622 L17.289,24.724 L17.317,24.825 L17.377,25.025 L17.409,25.125 L17.441,25.225 L17.475,25.322 L17.51,25.42 L17.547,25.518 L17.584,25.614 L17.623,25.71 L17.663,25.807 L17.703,25.9 L17.745,25.995 L17.788,26.089 L17.833,26.183 L17.878,26.275 L17.924,26.368 L17.972,26.458 L18.02,26.549 L18.07,26.64 L18.12,26.729 L18.172,26.817 L18.225,26.905 L18.279,26.992 L18.334,27.079 L18.389,27.165 L18.446,27.25 L18.504,27.335 L18.563,27.418 L18.623,27.502 L18.683,27.584 L18.745,27.666 L18.808,27.747 L18.872,27.827 L18.936,27.906 L19.002,27.984 L19.069,28.063 L19.136,28.14 L19.204,28.215 L19.273,28.291 L19.344,28.366 L19.414,28.438 L19.486,28.511 L19.559,28.583 L19.632,28.653 L19.707,28.724 L19.782,28.793 L19.858,28.861 L19.935,28.929 L20.012,28.996 L20.17,29.125 L20.25,29.188 L20.331,29.251 L20.413,29.313 L20.494,29.375 L20.577,29.435 L20.662,29.494 L20.746,29.551 L20.831,29.607 L20.918,29.664 L21.004,29.719 L21.091,29.772 L21.179,29.825 L21.268,29.877 L21.357,29.928 L21.448,29.978 L21.538,30.025 L21.63,30.074 L21.721,30.12 L21.813,30.165 L21.907,30.21 L22,30.252 L22.095,30.293 L22.19,30.334 L22.286,30.375 L22.382,30.414 L22.477,30.451 L22.575,30.487 L22.673,30.522 L22.772,30.557 L22.97,30.621 L23.07,30.652 L23.17,30.681 L23.271,30.709 L23.372,30.735 L23.474,30.761 L23.577,30.785 L23.681,30.809 L23.783,30.83 L23.887,30.851 L23.992,30.87 L24.202,30.905 L24.308,30.921 L24.413,30.935 L24.521,30.948 L24.628,30.959 L24.735,30.969 L24.843,30.978 L24.951,30.986 L25.059,30.992 L25.169,30.997 L25.279,31 L25.389,31.002 L25.499,31.003 L25.498,31.004 Z" id="Fill-3701" fill="#F34791"></path>
            </g>
        </g>
    </g>
</svg>