<?xml version="1.0" encoding="UTF-8"?>
<svg width="63px" height="53px" viewBox="0 0 63 53" version="1.1" xmlns="http://www.w3.org/2000/svg" xmlns:xlink="http://www.w3.org/1999/xlink">
    <!-- Generator: Sketch 48.1 (47250) - http://www.bohemiancoding.com/sketch -->
    <title>multipleApps</title>
    <desc>Created with Sketch.</desc>
    <defs></defs>
    <g id="Page-1" stroke="none" stroke-width="1" fill="none" fill-rule="evenodd">
        <g id="MoviApp_2" transform="translate(-1056.000000, -1604.000000)">
            <g id="multipleApps" transform="translate(1056.000000, 1604.000000)">
                <path d="M1.775,52.999 L1.729,52.999 L1.683,52.997 L1.638,52.995 L1.593,52.992 L1.549,52.988 L1.504,52.982 L1.46,52.976 L1.417,52.969 L1.374,52.961 L1.331,52.953 L1.289,52.942 L1.247,52.933 L1.205,52.922 L1.164,52.91 L1.124,52.896 L1.084,52.883 L1.044,52.869 L1.005,52.853 L0.967,52.837 L0.929,52.821 L0.891,52.803 L0.854,52.785 L0.818,52.766 L0.782,52.746 L0.747,52.726 L0.713,52.705 L0.679,52.683 L0.646,52.661 L0.613,52.638 L0.581,52.615 L0.55,52.59 L0.52,52.566 L0.49,52.54 L0.461,52.514 L0.433,52.487 L0.405,52.46 L0.378,52.433 L0.352,52.404 L0.327,52.376 L0.303,52.346 L0.279,52.316 L0.257,52.286 L0.235,52.255 L0.214,52.224 L0.194,52.192 L0.175,52.16 L0.157,52.128 L0.139,52.095 L0.123,52.061 L0.108,52.027 L0.093,51.993 L0.08,51.959 L0.067,51.924 L0.056,51.888 L0.045,51.853 L0.036,51.817 L0.028,51.78 L0.02,51.744 L0.014,51.707 L0.009,51.67 L0.005,51.632 L0.002,51.594 L0,51.556 L0,14.442 L0.002,14.405 L0.005,14.367 L0.009,14.33 L0.014,14.292 L0.02,14.255 L0.028,14.219 L0.036,14.183 L0.045,14.146 L0.056,14.11 L0.067,14.075 L0.08,14.041 L0.093,14.006 L0.108,13.972 L0.123,13.937 L0.139,13.903 L0.157,13.871 L0.175,13.838 L0.194,13.807 L0.214,13.774 L0.235,13.743 L0.257,13.712 L0.279,13.683 L0.303,13.652 L0.327,13.622 L0.352,13.595 L0.378,13.565 L0.405,13.538 L0.433,13.511 L0.461,13.484 L0.49,13.458 L0.52,13.433 L0.55,13.409 L0.581,13.384 L0.613,13.36 L0.646,13.338 L0.679,13.314 L0.713,13.293 L0.747,13.272 L0.782,13.251 L0.818,13.232 L0.854,13.213 L0.891,13.195 L0.929,13.177 L0.967,13.16 L1.005,13.145 L1.044,13.129 L1.084,13.115 L1.124,13.101 L1.164,13.088 L1.205,13.076 L1.247,13.065 L1.289,13.054 L1.331,13.045 L1.374,13.036 L1.417,13.028 L1.46,13.021 L1.504,13.016 L1.549,13.01 L1.593,13.006 L1.638,13.003 L1.683,13 L1.729,12.999 L61.317,12.999 L61.362,13.002 L61.407,13.005 L61.451,13.01 L61.496,13.015 L61.539,13.021 L61.583,13.027 L61.626,13.035 L61.669,13.044 L61.711,13.053 L61.753,13.064 L61.795,13.075 L61.836,13.087 L61.876,13.1 L61.916,13.114 L61.956,13.128 L61.995,13.144 L62.033,13.159 L62.071,13.176 L62.109,13.194 L62.146,13.212 L62.218,13.25 L62.253,13.271 L62.287,13.292 L62.321,13.313 L62.354,13.337 L62.387,13.359 L62.419,13.383 L62.45,13.408 L62.48,13.432 L62.51,13.458 L62.539,13.483 L62.567,13.51 L62.595,13.538 L62.621,13.564 L62.647,13.594 L62.673,13.621 L62.697,13.651 L62.72,13.682 L62.743,13.711 L62.765,13.742 L62.786,13.773 L62.806,13.806 L62.825,13.837 L62.843,13.87 L62.861,13.902 L62.877,13.937 L62.907,14.005 L62.92,14.04 L62.933,14.074 L62.944,14.109 L62.955,14.146 L62.964,14.182 L62.972,14.218 L62.98,14.254 L62.986,14.291 L62.991,14.329 L62.995,14.366 L62.998,14.404 L63,14.479 L63,51.555 L62.999,51.593 L62.996,51.631 L62.992,51.669 L62.987,51.706 L62.981,51.743 L62.973,51.779 L62.965,51.816 L62.956,51.852 L62.945,51.887 L62.934,51.923 L62.921,51.958 L62.908,51.992 L62.878,52.06 L62.862,52.094 L62.844,52.127 L62.826,52.159 L62.807,52.191 L62.787,52.223 L62.766,52.254 L62.744,52.285 L62.721,52.315 L62.698,52.345 L62.674,52.375 L62.648,52.403 L62.622,52.432 L62.596,52.459 L62.568,52.486 L62.54,52.513 L62.511,52.539 L62.481,52.565 L62.451,52.589 L62.42,52.614 L62.388,52.637 L62.355,52.66 L62.322,52.682 L62.288,52.704 L62.254,52.725 L62.219,52.745 L62.147,52.784 L62.11,52.802 L62.072,52.82 L62.034,52.836 L61.996,52.852 L61.957,52.868 L61.917,52.882 L61.877,52.896 L61.837,52.909 L61.796,52.921 L61.754,52.932 L61.67,52.952 L61.584,52.968 L61.54,52.975 L61.497,52.981 L61.452,52.987 L61.408,52.991 L61.363,52.994 L61.318,52.996 L61.272,52.998 L1.776,52.998 L1.775,52.999 Z M2,50.999 L61,50.999 L61,14.999 L2,14.999 L2,50.999 Z" id="Fill-3702" fill="#8D5DDD"></path>
                <polyline id="Fill-3703" fill="#F34791" points="3 11.999 3 5 60 5 60 11.999 58 11.999 58 7 5 7 5 11.999 3 11.999"></polyline>
                <polyline id="Fill-3704" fill="#F34791" points="8 7 8 0.999 56 0.999 56 7 54 7 54 2.999 10 2.999 10 7 8 7"></polyline>
            </g>
        </g>
    </g>
</svg>