<?xml version="1.0" encoding="UTF-8"?>
<svg width="70px" height="60px" viewBox="0 0 70 60" version="1.1" xmlns="http://www.w3.org/2000/svg" xmlns:xlink="http://www.w3.org/1999/xlink">
    <!-- Generator: Sketch 48.1 (47250) - http://www.bohemiancoding.com/sketch -->
    <title>pcIcon</title>
    <desc>Created with Sketch.</desc>
    <defs></defs>
    <g id="Page-1" stroke="none" stroke-width="1" fill="none" fill-rule="evenodd">
        <g id="MoviApp_2" transform="translate(-1047.000000, -1150.000000)">
            <g id="pcIcon" transform="translate(1047.000000, 1150.000000)">
                <path d="M2,49.999 L1.948,49.999 L1.897,49.997 L1.846,49.994 L1.795,49.989 L1.745,49.983 L1.695,49.976 L1.646,49.968 L1.597,49.959 L1.548,49.948 L1.5,49.937 L1.452,49.924 L1.405,49.909 L1.358,49.895 L1.312,49.878 L1.267,49.861 L1.221,49.842 L1.177,49.823 L1.133,49.802 L1.089,49.781 L1.047,49.758 L1.004,49.734 L0.963,49.71 L0.922,49.685 L0.882,49.658 L0.842,49.63 L0.803,49.603 L0.765,49.573 L0.728,49.543 L0.691,49.513 L0.655,49.48 L0.62,49.447 L0.586,49.414 L0.552,49.379 L0.519,49.345 L0.457,49.272 L0.426,49.234 L0.397,49.196 L0.369,49.157 L0.341,49.119 L0.289,49.037 L0.265,48.996 L0.241,48.954 L0.219,48.911 L0.197,48.867 L0.177,48.822 L0.157,48.778 L0.139,48.733 L0.121,48.688 L0.105,48.642 L0.09,48.595 L0.076,48.547 L0.063,48.499 L0.051,48.451 L0.041,48.402 L0.031,48.354 L0.023,48.305 L0.016,48.254 L0.01,48.205 L0.006,48.153 L0.003,48.103 L0.001,48.051 L0,47.999 L0,1.999 L0.001,1.948 L0.003,1.896 L0.006,1.845 L0.01,1.795 L0.016,1.745 L0.023,1.695 L0.031,1.646 L0.041,1.596 L0.051,1.548 L0.063,1.5 L0.076,1.452 L0.09,1.405 L0.105,1.358 L0.121,1.312 L0.139,1.266 L0.157,1.221 L0.177,1.176 L0.197,1.132 L0.241,1.046 L0.265,1.004 L0.289,0.962 L0.315,0.922 L0.341,0.881 L0.369,0.842 L0.397,0.803 L0.426,0.766 L0.457,0.728 L0.519,0.655 L0.552,0.62 L0.586,0.585 L0.62,0.552 L0.655,0.52 L0.691,0.487 L0.728,0.456 L0.765,0.426 L0.803,0.397 L0.842,0.369 L0.882,0.341 L0.922,0.315 L0.963,0.289 L1.004,0.266 L1.047,0.241 L1.089,0.22 L1.133,0.197 L1.177,0.178 L1.221,0.158 L1.267,0.14 L1.312,0.122 L1.358,0.105 L1.452,0.076 L1.5,0.063 L1.548,0.052 L1.597,0.042 L1.646,0.031 L1.695,0.023 L1.745,0.017 L1.795,0.011 L1.846,0.006 L1.897,0.003 L1.948,0.001 L2,0 L68.052,0 L68.103,0.002 L68.154,0.006 L68.204,0.01 L68.255,0.016 L68.305,0.022 L68.354,0.03 L68.403,0.041 L68.452,0.051 L68.5,0.063 L68.547,0.076 L68.595,0.09 L68.641,0.104 L68.688,0.121 L68.778,0.157 L68.823,0.177 L68.867,0.196 L68.91,0.219 L68.953,0.24 L68.995,0.265 L69.037,0.288 L69.078,0.314 L69.118,0.34 L69.158,0.368 L69.197,0.396 L69.235,0.425 L69.272,0.455 L69.309,0.486 L69.345,0.519 L69.38,0.551 L69.414,0.584 L69.448,0.619 L69.48,0.654 L69.512,0.69 L69.543,0.727 L69.603,0.803 L69.631,0.841 L69.658,0.88 L69.685,0.921 L69.71,0.961 L69.735,1.003 L69.759,1.045 L69.803,1.131 L69.823,1.175 L69.843,1.22 L69.861,1.265 L69.879,1.311 L69.895,1.357 L69.91,1.404 L69.924,1.451 L69.937,1.499 L69.949,1.547 L69.959,1.595 L69.969,1.645 L69.977,1.694 L69.984,1.744 L69.99,1.794 L69.994,1.844 L69.997,1.895 L69.999,1.947 L70,1.998 L70,48.05 L69.998,48.102 L69.995,48.152 L69.991,48.204 L69.985,48.253 L69.978,48.304 L69.97,48.353 L69.95,48.45 L69.938,48.498 L69.925,48.546 L69.911,48.594 L69.896,48.641 L69.88,48.687 L69.862,48.732 L69.844,48.777 L69.824,48.821 L69.804,48.866 L69.782,48.91 L69.76,48.953 L69.736,48.995 L69.711,49.036 L69.686,49.077 L69.659,49.118 L69.632,49.156 L69.604,49.195 L69.544,49.271 L69.513,49.308 L69.481,49.344 L69.449,49.378 L69.415,49.413 L69.381,49.446 L69.346,49.479 L69.31,49.512 L69.273,49.542 L69.236,49.572 L69.198,49.602 L69.159,49.629 L69.119,49.657 L69.079,49.684 L69.038,49.709 L68.954,49.757 L68.911,49.78 L68.868,49.801 L68.824,49.822 L68.779,49.841 L68.734,49.86 L68.689,49.877 L68.642,49.894 L68.596,49.908 L68.548,49.923 L68.501,49.936 L68.453,49.947 L68.404,49.958 L68.355,49.967 L68.306,49.975 L68.256,49.982 L68.205,49.988 L68.155,49.993 L68.104,49.996 L68.053,49.998 L2.001,49.998 L2,49.999 Z M2.013,47.999 L68,47.999 L68,2 L2,2 L2,47.999 L2.013,47.999 Z" id="Fill-3685" fill="#8D5DDD"></path>
                <path d="M5.771,41 L5.726,40.999 L5.68,40.998 L5.635,40.995 L5.59,40.992 L5.546,40.987 L5.502,40.982 L5.458,40.977 L5.414,40.969 L5.371,40.961 L5.329,40.952 L5.286,40.942 L5.245,40.932 L5.203,40.92 L5.162,40.907 L5.122,40.895 L5.082,40.881 L5.042,40.865 L5.003,40.851 L4.927,40.816 L4.89,40.798 L4.853,40.779 L4.817,40.76 L4.781,40.74 L4.746,40.719 L4.712,40.698 L4.678,40.675 L4.645,40.652 L4.612,40.629 L4.58,40.605 L4.549,40.58 L4.519,40.554 L4.489,40.528 L4.46,40.501 L4.432,40.475 L4.404,40.446 L4.378,40.418 L4.352,40.39 L4.327,40.359 L4.279,40.3 L4.256,40.269 L4.214,40.204 L4.194,40.171 L4.175,40.138 L4.156,40.105 L4.139,40.071 L4.123,40.037 L4.107,40.002 L4.093,39.967 L4.08,39.932 L4.067,39.896 L4.056,39.859 L4.045,39.823 L4.036,39.786 L4.028,39.749 L4.02,39.711 L4.014,39.673 L4.009,39.635 L4.005,39.597 L4.002,39.559 L4,39.48 L4,4.521 L4.002,4.442 L4.005,4.404 L4.009,4.365 L4.014,4.327 L4.02,4.289 L4.028,4.252 L4.036,4.214 L4.045,4.177 L4.056,4.141 L4.067,4.104 L4.08,4.068 L4.093,4.032 L4.107,3.998 L4.123,3.963 L4.139,3.929 L4.156,3.895 L4.175,3.861 L4.194,3.829 L4.214,3.796 L4.256,3.731 L4.279,3.7 L4.327,3.641 L4.352,3.61 L4.378,3.581 L4.404,3.554 L4.432,3.525 L4.46,3.499 L4.489,3.472 L4.519,3.445 L4.549,3.42 L4.58,3.395 L4.612,3.371 L4.645,3.348 L4.678,3.325 L4.712,3.303 L4.746,3.281 L4.781,3.26 L4.817,3.24 L4.853,3.221 L4.89,3.202 L4.927,3.184 L4.965,3.167 L5.003,3.15 L5.042,3.135 L5.082,3.12 L5.122,3.105 L5.162,3.093 L5.203,3.081 L5.245,3.069 L5.286,3.058 L5.329,3.049 L5.371,3.04 L5.414,3.032 L5.458,3.024 L5.502,3.018 L5.546,3.013 L5.59,3.009 L5.635,3.005 L5.68,3.003 L5.726,3.001 L64.274,3.001 L64.32,3.003 L64.365,3.005 L64.41,3.009 L64.454,3.013 L64.498,3.018 L64.542,3.024 L64.586,3.032 L64.629,3.04 L64.671,3.049 L64.713,3.058 L64.755,3.069 L64.797,3.081 L64.838,3.093 L64.878,3.105 L64.918,3.12 L64.958,3.135 L64.997,3.15 L65.035,3.167 L65.073,3.184 L65.11,3.202 L65.147,3.221 L65.183,3.24 L65.219,3.26 L65.254,3.281 L65.288,3.303 L65.322,3.325 L65.388,3.371 L65.42,3.395 L65.451,3.42 L65.481,3.445 L65.511,3.472 L65.54,3.499 L65.568,3.525 L65.595,3.554 L65.622,3.581 L65.648,3.61 L65.673,3.641 L65.697,3.67 L65.721,3.7 L65.744,3.731 L65.786,3.796 L65.806,3.829 L65.825,3.861 L65.843,3.895 L65.861,3.929 L65.877,3.963 L65.907,4.032 L65.92,4.068 L65.933,4.104 L65.955,4.177 L65.964,4.214 L65.972,4.252 L65.98,4.289 L65.986,4.327 L65.991,4.365 L65.995,4.404 L65.998,4.442 L65.999,4.481 L66,4.521 L66,39.52 L65.999,39.559 L65.996,39.597 L65.992,39.635 L65.987,39.673 L65.981,39.711 L65.973,39.749 L65.965,39.786 L65.956,39.823 L65.945,39.859 L65.934,39.896 L65.921,39.932 L65.908,39.967 L65.893,40.002 L65.878,40.037 L65.862,40.071 L65.844,40.105 L65.826,40.138 L65.807,40.171 L65.787,40.204 L65.745,40.269 L65.722,40.3 L65.698,40.33 L65.674,40.359 L65.649,40.39 L65.623,40.418 L65.596,40.446 L65.569,40.475 L65.541,40.501 L65.512,40.528 L65.482,40.554 L65.452,40.58 L65.421,40.605 L65.389,40.629 L65.356,40.652 L65.323,40.675 L65.289,40.698 L65.255,40.719 L65.22,40.74 L65.184,40.76 L65.148,40.779 L65.111,40.798 L65.074,40.816 L65.036,40.833 L64.998,40.851 L64.959,40.865 L64.919,40.881 L64.879,40.895 L64.839,40.907 L64.798,40.92 L64.756,40.932 L64.714,40.942 L64.672,40.952 L64.63,40.961 L64.587,40.969 L64.543,40.977 L64.499,40.982 L64.455,40.987 L64.411,40.992 L64.321,40.998 L64.275,40.999 L5.772,40.999 L5.771,41 Z M6,39 L64,39 L64,5 L6,5 L6,39 Z" id="Fill-3686" fill="#8D5DDD"></path>
                <polyline id="Fill-3687" fill="#F34791" points="24 19.999 24 12 32 12 32 14 26 14 26 19.999 24 19.999"></polyline>
                <polyline id="Fill-3688" fill="#F34791" points="44 19.999 44 14 38 14 38 12 46 12 46 19.999 44 19.999"></polyline>
                <polyline id="Fill-3689" fill="#F34791" points="38 32.999 38 30.999 44 30.999 44 24.999 46 24.999 46 32.999 38 32.999"></polyline>
                <polyline id="Fill-3690" fill="#F34791" points="24 32.999 24 24.999 26 24.999 26 30.999 32 30.999 32 32.999 24 32.999"></polyline>
                <polyline id="Fill-3691" fill="#F34791" points="17 59.999 17 50.999 54 50.999 54 59.999 52 59.999 52 52.999 19 52.999 19 59.999 17 59.999"></polyline>
            </g>
        </g>
    </g>
</svg>